<?xml version="1.0" encoding="UTF-8"?>
<svg id="Camada_1" data-name="Camada 1" xmlns="http://www.w3.org/2000/svg" viewBox="0 0 62.36 67.5">
  <defs>
    <style>
      .cls-1 {
        fill: #454545;
      }
    </style>
  </defs>
  <path id="Vector" class="cls-1" d="m15.81,37.86c0,4.6,0,9.21,0,13.81,0,1.47.69,2.19,2.15,2.19,9.04,0,18.08,0,27.12,0,1.52,0,2.21-.71,2.21-2.24,0-2.52,0-5.03,0-7.55,0-1.1,1.12-1.74,2.04-1.2.45.26.7.67.7,1.19,0,2.75.06,5.5-.02,8.25-.06,2.38-2.1,4.27-4.51,4.3-1.97.02-3.95,0-5.92,0-7.27,0-14.53,0-21.8,0-2.41,0-4.23-1.51-4.67-3.85-.05-.26-.06-.53-.06-.79,0-10.8,0-21.6,0-32.39,0-1.85,1.57-3.52,3.6-3.85.39-.06.79-.1,1.19-.1,7.5,0,15,0,22.49,0,.91,0,1.78.17,2.59.6,1.51.82,2.23,2.11,2.21,3.83,0,.74,0,.74.72.82,2.46.26,4.17,2.14,4.18,4.61.01,1.71,0,3.41,0,5.12,0,.62-.29,1.08-.86,1.34-.51.23-.98.12-1.4-.22-.36-.29-.49-.69-.49-1.14,0-1.57,0-3.15,0-4.72,0-.23-.01-.46-.05-.69-.17-.99-.83-1.55-1.82-1.55-1.91,0-3.82,0-5.72,0-7.22,0-14.43,0-21.65,0-.57,0-1.13-.05-1.68-.18-.38-.09-.56.07-.57.47,0,3.51,0,7.02,0,10.53v3.43h0Zm13.82-17.05c3.96,0,7.93,0,11.89,0,.17,0,.33,0,.5,0,.14,0,.24-.06.3-.21.34-.96-.21-1.93-1.22-2.12-.29-.06-.59-.1-.89-.1-7.43,0-14.86,0-22.29,0-.53,0-1.06.07-1.53.37-.75.48-.76,1.22-.03,1.72.46.32.99.35,1.52.35,3.91,0,7.83,0,11.74,0Z"/>
  <path id="Vector-2" data-name="Vector" class="cls-1" d="m37.57,39.13c.5.52,1,1.04,1.5,1.56.35.36.7.72,1.03,1.1.55.64.54,1.47,0,2.06-.56.6-1.37.62-1.99,0-.53-.52-1.03-1.07-1.54-1.61-1.09-1.14-2.17-2.28-3.25-3.43-.81-.86-.8-1.63,0-2.49,1.56-1.65,3.12-3.29,4.69-4.93.61-.64,1.32-.72,1.91-.26.73.58.81,1.53.14,2.28-.65.72-1.33,1.41-2,2.12-.13.14-.25.28-.42.47.29.11.54.07.78.06,3.14-.16,6.25-.52,9.2-1.79,1.67-.72,3.19-1.69,4.3-3.25.49-.69.84-1.45,1-2.31.17-.98.83-1.52,1.66-1.37.8.14,1.26.94,1.1,1.91-.28,1.69-1.04,3.14-2.14,4.39-1.59,1.81-3.58,2.94-5.75,3.74-2.45.9-4.99,1.33-7.57,1.53-.86.07-1.71.08-2.65.23h0Z"/>
</svg>