<svg width="49" height="35" viewBox="0 0 49 35" fill="none" xmlns="http://www.w3.org/2000/svg">
<path id="Vector" d="M49 34.4225C48.4515 35.086 48.1191 35.1437 47.3469 34.769C44.6743 33.4762 41.8452 32.6987 38.9132 32.2662C37.0992 31.9982 35.2747 31.8634 33.4398 31.8827C30.9639 31.9078 28.5089 32.1418 26.1031 32.7253C25.021 32.9889 23.991 32.9815 22.9103 32.7224C20.2675 32.087 17.5665 31.8471 14.8537 31.8989C10.218 31.9878 5.74471 32.8556 1.52785 34.8431C0.66182 35.2518 0.00149058 34.7957 0 33.7916C0 26.9511 0 20.112 0 13.273C0 10.2488 0 7.22473 0 4.20061C0 3.26169 0.341344 2.90329 1.2819 2.88256C2.06297 2.86627 2.84404 2.86627 3.62361 2.88256C3.99179 2.88997 4.15873 2.76112 4.12296 2.38644C4.10656 2.21465 4.11401 2.03842 4.12743 1.86514C4.16618 1.332 4.41064 1.00027 4.92936 0.869941C7.71229 0.165006 10.531 -0.137109 13.4033 0.0702244C15.5319 0.224244 17.5993 0.628545 19.5773 1.42974C21.2751 2.11839 22.8089 3.0736 24.1281 4.34575C24.3934 4.60195 24.5559 4.66267 24.8585 4.37537C27.1808 2.17318 29.9935 0.958798 33.1163 0.384187C36.6982 -0.274838 40.2488 -0.049733 43.774 0.782565C44.6296 0.983975 44.8815 1.30238 44.8949 2.2265C44.9019 2.69645 45.1364 2.93143 45.5985 2.93143C46.3319 2.93143 47.0652 2.9492 47.7971 2.92551C48.3263 2.90922 48.7287 3.08101 48.997 3.54159V34.4225H49ZM6.09351 15.0412C6.09351 18.9672 6.09351 22.8918 6.09351 26.8178C6.09351 27.1006 6.02643 27.4028 6.51535 27.3406C9.08213 27.0103 11.6579 26.9703 14.2351 27.1836C16.0804 27.3361 17.893 27.6723 19.6563 28.2454C20.8861 28.6453 22.0771 29.134 23.1786 29.8152C23.435 29.9737 23.5527 29.9589 23.5274 29.6286C23.5184 29.519 23.5274 29.4065 23.5274 29.2969C23.5065 23.188 23.4842 17.079 23.4633 10.9701C23.4588 9.70385 23.4469 8.43763 23.4663 7.17141C23.4737 6.75674 23.3366 6.44871 23.0459 6.16288C21.4868 4.62861 19.6534 3.54751 17.5651 2.90478C13.9474 1.78962 10.288 1.85478 6.60776 2.55083C6.18444 2.6308 6.08457 2.81888 6.08606 3.21726C6.09947 7.15808 6.09351 11.1004 6.09351 15.0412ZM25.5024 29.9826C25.7111 29.87 25.8244 29.8138 25.9332 29.7501C27.3433 28.9222 28.8577 28.3491 30.4348 27.9315C34.3565 26.8918 38.3349 26.8755 42.3326 27.3139C42.741 27.3583 42.8692 27.2858 42.8692 26.8711C42.8618 18.9539 42.8618 11.0352 42.8692 3.11803C42.8692 2.75964 42.741 2.61895 42.3982 2.55379C39.5601 2.02361 36.7146 1.84441 33.8512 2.33609C30.8089 2.85887 28.0916 4.02586 25.8825 6.23693C25.5993 6.51979 25.495 6.8071 25.495 7.19955C25.5054 14.6103 25.5024 22.021 25.5024 29.4332C25.5024 29.5872 25.5024 29.7412 25.5024 29.9826ZM30.6613 29.9974C32.0997 29.9337 33.5277 29.8804 34.9617 29.9174C37.8922 29.993 40.7556 30.4609 43.5698 31.2592C44.5819 31.5465 45.5746 31.8871 46.5569 32.2588C47.0384 32.441 47.0488 32.4276 47.0548 31.8989C47.0548 31.7716 47.0548 31.6457 47.0548 31.5183C47.0578 23.0636 47.0622 14.6088 47.0652 6.15548C47.0652 4.89962 47.0652 4.89518 45.8206 4.90111C44.8115 4.90555 44.9158 4.78855 44.9158 5.77783C44.9143 13.2507 44.9158 20.7236 44.9143 28.1966C44.9143 29.1932 44.4656 29.5694 43.4759 29.4391C41.8825 29.2288 40.2816 29.0777 38.6732 29.0392C37.1752 29.0022 35.6786 29.0318 34.191 29.2332C32.9941 29.3961 31.8091 29.6138 30.6628 29.9989L30.6613 29.9974ZM18.3744 30.0166C16.5157 29.4154 14.6003 29.1266 12.6595 29.0496C10.2358 28.9518 7.82259 29.1236 5.42275 29.4805C4.749 29.5812 4.275 29.2317 4.16469 28.5579C4.12594 28.3254 4.13041 28.0855 4.13041 27.8485C4.12892 20.4867 4.13041 13.1234 4.13041 5.76154C4.13041 5.60308 4.12147 5.44462 4.13041 5.28615C4.14532 4.99885 4.00818 4.88926 3.72795 4.89962C3.37767 4.91147 3.02738 4.90111 2.6756 4.90111C2.20954 4.90111 1.97652 5.1351 1.97652 5.60308C1.97652 14.3111 1.97652 23.0191 1.97652 31.7286C1.97652 31.8234 1.98397 31.9197 1.97652 32.013C1.9467 32.3729 2.10322 32.4084 2.4058 32.2914C3.02887 32.053 3.6579 31.8234 4.29288 31.6146C6.72105 30.8178 9.21032 30.301 11.7548 30.0537C13.0217 29.9308 14.2917 29.8686 15.5677 29.9145C16.5038 29.9485 17.4413 29.9085 18.3759 30.0166H18.3744Z" fill="white"/>
</svg>
