<svg width="109" height="164" viewBox="0 0 109 164" fill="none" xmlns="http://www.w3.org/2000/svg">
<g id="Group">
<g id="OBJECTS">
<g id="Group_2">
<path id="Vector" d="M54.5 163.214C24.4005 163.214 0 160.031 0 156.105C0 152.179 24.4005 148.996 54.5 148.996C84.5995 148.996 109 152.179 109 156.105C109 160.031 84.5995 163.214 54.5 163.214Z" fill="#4A4A4A"/>
<g id="Group_3">
<g id="Group_4">
<path id="Vector_2" d="M16.9554 39.5421C14.5543 43.3509 29.5242 57.1119 50.3894 70.2852C71.2629 83.4584 90.1243 91.0427 92.5255 87.234C94.9266 83.4253 79.9567 69.6642 59.0915 56.491C38.218 43.3178 19.3566 35.7334 16.9554 39.5421Z" fill="#F2D49B"/>
<g id="Vector_3" style="mix-blend-mode:screen">
<path d="M16.9554 39.5421C14.5543 43.3509 29.5242 57.1119 50.3894 70.2852C71.2629 83.4584 90.1243 91.0427 92.5255 87.234C94.9266 83.4253 79.9567 69.6642 59.0915 56.491C38.218 43.3178 19.3566 35.7334 16.9554 39.5421Z" fill="#F2D49B"/>
</g>
<path id="Vector_4" d="M38.0443 52.8479C36.9845 54.5287 43.6 60.6061 52.8155 66.4268C62.0309 72.2475 70.3687 75.6008 71.4286 73.9117C72.4884 72.2309 65.8728 66.1535 56.6573 60.3328C47.4336 54.5121 39.1041 51.1588 38.0443 52.8479Z" fill="#F2D49B"/>
<path id="Vector_5" d="M50.3909 70.2776C71.2644 83.4508 90.1258 91.0351 92.527 87.2264V150.824C92.6843 151.08 92.7754 151.345 92.7754 151.61C92.7754 155.444 75.7438 158.549 54.7378 158.549C33.7319 158.549 16.7003 155.444 16.7003 151.61V40.3874C16.485 45.0986 30.8505 57.9489 50.3909 70.2776Z" fill="#F2D49B"/>
<g id="Vector_6" style="mix-blend-mode:screen" opacity="0.47">
<path d="M45.0172 126.696C38.1201 120.891 34.6757 111.999 32.3987 103.272C28.3002 87.5568 27.1742 71.0799 29.0289 54.9508C34.7419 59.7117 42.0944 65.0356 50.3991 70.2767C71.2725 83.45 90.134 91.0343 92.5352 87.2256V121.264C90.697 122.936 88.7678 124.501 86.6979 125.917C74.3692 134.338 56.4434 136.308 45.0255 126.696H45.0172Z" fill="#F2D49B"/>
</g>
<g id="Vector_7" style="mix-blend-mode:multiply" opacity="0.47">
<path d="M22.3802 48.9239C23.4732 73.7055 24.5578 98.487 25.6508 123.26C25.8495 127.798 26.0896 132.484 28.1513 136.533C30.925 141.973 36.605 145.367 42.4009 147.297C54.3735 151.287 67.9938 150.029 79.0309 143.902C84.2389 141.012 88.8259 137.046 92.527 132.385V150.824C92.6843 151.08 92.7754 151.345 92.7754 151.61C92.7754 155.444 75.7438 158.549 54.7378 158.549C33.7319 158.549 16.7003 155.444 16.7003 151.61V40.3874C16.6175 42.2007 18.6874 45.2063 22.372 48.9322L22.3802 48.9239Z" fill="#F2D49B"/>
</g>
<g id="Vector_8" style="mix-blend-mode:screen" opacity="0.47">
<path d="M57.8309 108.579C45.6844 104.58 37.8517 92.1936 35.5582 79.6166C34.3659 73.0424 34.4156 66.3854 35.0531 59.7284C39.5905 63.1563 44.7736 66.7414 50.3874 70.2769C71.2608 83.4501 90.1223 91.0345 92.5234 87.2257V99.0245C91.4388 100.01 90.3127 100.954 89.137 101.84C80.2858 108.546 68.3712 112.04 57.8309 108.571V108.579Z" fill="#F2D49B"/>
</g>
</g>
<g id="Group_5">
<g id="Vector_9" style="mix-blend-mode:screen" opacity="0.31">
<path d="M38.0378 50.7185C28.8127 41.4934 28.8127 26.5366 38.0378 17.3115C47.2629 8.08634 62.2198 8.08634 71.4449 17.3114C80.67 26.5366 80.67 41.4934 71.4449 50.7185C62.2198 59.9436 47.2629 59.9436 38.0378 50.7185Z" fill="#D8EBEB"/>
</g>
<g id="Group_6">
<path id="Vector_10" d="M63.3901 37.0504C62.6283 29.9049 58.8859 23.281 53.8186 18.1806C48.9832 25.4172 44.6777 33.6805 45.6298 42.3081C46.0438 46.0837 49.1488 52.3515 51.7404 55.324C54.837 58.876 58.8113 54.1068 60.3762 51.4656C62.9181 47.1683 63.9283 42.0017 63.3984 37.0504H63.3901Z" fill="#EB9142"/>
<path id="Vector_11" d="M58.2311 44.7252C58.2559 39.9312 56.9974 35.1372 54.6045 30.9807C54.4306 30.6743 54.2071 30.3431 53.8593 30.2769C53.346 30.1775 52.9403 30.7075 52.6919 31.1711C50.4894 35.3442 49.5207 40.1547 49.943 44.8577C50.2493 48.3352 50.8206 51.7299 52.5263 54.7769C53.2466 56.052 54.4472 57.6418 55.3745 55.6629C56.1114 54.0814 57.1381 52.3758 57.5273 50.6784C57.9744 48.7327 58.2145 46.7289 58.2228 44.7335L58.2311 44.7252Z" fill="white"/>
</g>
<path id="Vector_12" d="M54.2158 46.2164C54.8534 46.2164 55.375 46.738 55.375 47.3756V63.4881C55.375 64.1257 54.8534 64.6473 54.2158 64.6473C53.5783 64.6473 53.0566 64.1257 53.0566 63.4881V47.3756C53.0566 46.738 53.5783 46.2164 54.2158 46.2164Z" fill="#402210"/>
</g>
</g>
</g>
</g>
</g>
</svg>
