<svg width="51" height="41" viewBox="0 0 51 41" fill="none" xmlns="http://www.w3.org/2000/svg">
<g id="Camada_1" clip-path="url(#clip0_409_85)">
<path id="Vector" d="M51 8.21111C50.911 9.14395 50.8131 10.0768 50.7329 11.0096C50.5371 13.317 50.3457 15.6198 50.1588 17.9271C49.9807 20.1172 49.8116 22.3074 49.6291 24.4975C49.4733 26.3677 49.3398 28.2424 49.1395 30.1081C48.9214 32.118 47.2967 33.5376 45.3027 33.5376C44.9199 33.5376 44.5371 33.5376 44.1632 33.4835C43.8249 33.4339 43.7626 33.5736 43.7626 33.8665C43.7715 34.9075 43.7715 35.9485 43.7626 36.9895C43.7493 39.3013 42.0757 40.9958 39.7923 40.9958C27.8501 40.9958 15.908 40.9958 3.96588 40.9958C1.66914 40.9958 0.00445104 39.3149 0 36.9985C0 29.4772 0 21.9514 0 14.4301C0 12.0867 1.66024 10.4148 3.99258 10.4013C4.72255 10.4013 5.45252 10.3832 6.18249 10.4058C6.56083 10.4193 6.72552 10.2706 6.76113 9.90104C6.96142 7.90016 7.18843 5.89928 7.37092 3.8984C7.55341 1.85696 8.7819 0.37433 10.6424 0.0588759C11.5504 -0.0943446 12.4629 0.0949278 13.3709 0.162525C15.2226 0.29772 17.0697 0.473472 18.9169 0.631199C21.1291 0.820472 23.3412 1.01425 25.549 1.20352C27.2671 1.34773 28.9807 1.48743 30.6988 1.63164C32.9599 1.82091 35.2211 2.0192 37.4822 2.20847C39.1825 2.35268 40.8828 2.49238 42.5831 2.63659C44.2656 2.77629 45.957 2.87092 47.6306 3.07371C49.1528 3.25397 50.2077 4.14175 50.7953 5.57932C50.8665 5.75057 50.9288 5.92181 50.9955 6.09306V8.21111H51ZM21.8591 24.6688C15.4718 24.6688 9.08902 24.6733 2.70178 24.6598C2.21662 24.6598 2.04303 24.7679 2.04748 25.2952C2.06973 29.1077 2.05638 32.9202 2.06083 36.7281C2.06083 38.1837 2.72404 38.8507 4.16172 38.8507C15.9703 38.8507 27.7789 38.8507 39.5875 38.8507C41.0208 38.8507 41.635 38.2243 41.635 36.7597C41.635 32.9652 41.635 29.1708 41.635 25.3763C41.635 24.9016 41.3947 24.6643 40.9139 24.6643C34.5623 24.6643 28.2107 24.6643 21.8591 24.6643V24.6688ZM24.6766 10.4013C29.6528 10.4013 34.6291 10.4013 39.6009 10.4013C42.138 10.4013 43.7582 12.0551 43.7582 14.6328C43.7582 19.9054 43.7582 25.178 43.7582 30.4506C43.7582 31.4195 43.7092 31.3519 44.5905 31.3744C44.7062 31.3744 44.822 31.397 44.9377 31.4105C46.0861 31.5727 47.0074 30.8156 47.0875 29.653C47.1231 29.0987 47.1632 28.5489 47.2077 27.9991C47.5282 24.1911 47.8531 20.3831 48.1736 16.5706C48.4362 13.4296 48.6899 10.2886 48.9525 7.14758C49.0282 6.22825 48.4006 5.354 47.497 5.2188C46.8249 5.11966 46.1484 5.07459 45.4718 5.01601C43.7048 4.8673 41.9377 4.72759 40.1706 4.57888C37.9095 4.38961 35.6484 4.19583 33.3872 4.00205C31.6558 3.85784 29.9199 3.71364 28.1884 3.56492C25.9763 3.37565 23.7641 3.18638 21.5564 2.9971C19.7404 2.83938 17.9288 2.67714 16.1128 2.52392C14.546 2.39324 12.9748 2.25804 11.4036 2.16791C10.3175 2.10482 9.62315 2.76277 9.50742 3.85784C9.30712 5.79112 9.10237 7.72441 8.89763 9.65769C8.81751 10.3968 8.81306 10.3968 9.54748 10.3968C14.5905 10.3968 19.6291 10.3968 24.6721 10.3968L24.6766 10.4013ZM21.7789 22.5237C28.095 22.5237 34.4154 22.5237 40.7315 22.5237C41.3368 22.5237 41.6395 22.2098 41.6395 21.5818C41.6395 20.8248 41.6395 20.0722 41.6395 19.3151C41.6395 18.7713 41.3635 18.4994 40.8116 18.4994C28.1617 18.4994 15.5074 18.4994 2.85757 18.4994C2.7908 18.4994 2.72404 18.5084 2.65727 18.4994C2.21662 18.4453 2.03412 18.5986 2.05193 19.0853C2.08754 19.9911 2.06083 20.8969 2.06083 21.8027C2.06083 22.2804 2.2997 22.5192 2.77745 22.5192C9.11128 22.5192 15.4451 22.5192 21.7789 22.5192V22.5237ZM21.8323 16.3498C28.1172 16.3498 34.4065 16.3498 40.6914 16.3498C40.8427 16.3498 40.9896 16.3363 41.1409 16.3498C41.5015 16.3859 41.6528 16.2326 41.6395 15.8586C41.6217 15.3223 41.6439 14.7816 41.6261 14.2453C41.595 13.2764 40.905 12.5959 39.9392 12.5554C39.7745 12.5463 39.6053 12.5509 39.4407 12.5509C27.73 12.5509 16.0193 12.5509 4.30861 12.5509C4.12611 12.5509 3.94362 12.5509 3.76113 12.5599C2.95549 12.6004 2.3546 13.1006 2.1454 13.8848C1.98961 14.4661 2.06973 15.0565 2.06083 15.6378C2.04748 16.3453 2.06083 16.3453 2.773 16.3453C9.12463 16.3453 15.4807 16.3453 21.8323 16.3453V16.3498Z" fill="white"/>
<path id="Vector_2" d="M32.7861 27.5436C34.2593 27.5436 35.7371 27.5436 37.2104 27.5436C38.2163 27.5436 38.5858 27.9267 38.5858 28.9497C38.5858 30.8649 38.5858 32.7757 38.5858 34.6909C38.5858 35.6148 38.1985 36.0294 37.2994 36.0339C34.2816 36.0429 31.2638 36.0429 28.2504 36.0339C27.3068 36.0339 26.9018 35.6012 26.9018 34.6278C26.8973 32.7306 26.8973 30.8334 26.9018 28.9407C26.9018 27.9763 27.3202 27.5527 28.2638 27.5481C29.7727 27.5436 31.2816 27.5481 32.7905 27.5481L32.7861 27.5436ZM32.6837 33.8843C33.7786 33.8843 34.8736 33.8753 35.9685 33.8888C36.3246 33.8933 36.4849 33.7806 36.4804 33.4021C36.4671 32.3295 36.4715 31.2525 36.4804 30.1799C36.4804 29.8419 36.3602 29.6977 36.0131 29.6977C33.8409 29.7068 31.6688 29.7068 29.4967 29.6977C29.1095 29.6977 29.0205 29.8645 29.0249 30.216C29.0383 31.275 29.0427 32.3295 29.0249 33.3885C29.016 33.8031 29.1852 33.9023 29.5546 33.8978C30.6006 33.8798 31.6421 33.8933 32.6881 33.8933L32.6837 33.8843Z" fill="white"/>
</g>
<defs>
<clipPath id="clip0_409_85">
<rect width="51" height="41" fill="white"/>
</clipPath>
</defs>
</svg>
