<svg width="46" height="40" viewBox="0 0 46 40" fill="none" xmlns="http://www.w3.org/2000/svg">
<g clip-path="url(#clip0_278_734)">
<path d="M46 7.19374V8.88207C45.8931 9.73285 45.7768 10.5823 45.6792 11.4344C45.3356 14.4472 45.0014 17.4613 44.6592 20.4741C44.2782 23.8244 43.8972 27.1759 43.5042 30.5248C43.2663 32.5531 42.3011 34.0404 40.2318 34.6371C39.8308 34.7522 39.7198 34.9494 39.7292 35.3304C39.7465 36.0952 39.6142 36.8335 39.2225 37.5096C38.2239 39.2377 36.6479 39.9866 34.7095 39.9892C24.6396 40.0064 14.5709 39.9998 4.50094 39.9919C3.76438 39.9919 3.03717 39.8767 2.37546 39.5221C0.800732 38.6793 0 37.3747 0 35.5937C0.00133678 28.1008 0 20.6065 0 13.1135C0 12.9507 0.00267356 12.788 0.012031 12.6252C0.129668 10.5982 1.66964 8.81459 3.62669 8.45205C4.20284 8.3462 4.79103 8.41235 5.37386 8.40442C5.99547 8.39515 6.02621 8.37398 6.0984 7.77328C6.25213 6.51099 6.41655 5.24871 6.55825 3.98511C6.84165 1.45393 9.23716 -0.300556 11.483 0.0421382C12.0872 0.134758 12.7008 0.16916 13.3103 0.236641C15.5227 0.482746 17.7351 0.731497 19.9475 0.981571C22.1892 1.23429 24.431 1.48966 26.6728 1.74106C28.9146 1.99245 31.1577 2.23988 33.3995 2.49128C35.938 2.77576 38.4766 3.06553 41.0165 3.34471C42.0311 3.45585 43.035 3.57626 43.9226 4.14786C45.0536 4.87559 45.6992 5.9169 46.0013 7.19374H46ZM19.6453 10.6908C14.6485 10.6908 9.6529 10.6908 4.65601 10.6908C3.36468 10.6908 2.59336 11.3392 2.37279 12.6094C2.33268 12.8409 2.31397 13.0791 2.31263 13.3146C2.30862 18.2446 2.30996 23.176 2.31263 28.106C2.31263 28.2476 2.23777 28.4487 2.37412 28.5215C2.54256 28.6102 2.66153 28.4117 2.78585 28.3217C4.99154 26.7419 7.18788 25.1501 9.39624 23.5743C11.6581 21.9587 14.0603 22.0765 16.159 23.8984C18.0252 25.5193 19.8846 27.1481 21.7454 28.7756C22.9191 29.8023 24.0861 29.9333 25.447 29.1513C29.2755 26.9509 33.0974 24.74 36.9273 22.5409C37.2334 22.3649 37.3711 22.1612 37.3697 21.8013C37.3577 18.9287 37.3631 16.0562 37.3617 13.1836C37.3617 12.9468 37.3457 12.7126 37.2735 12.4823C36.9219 11.359 35.9715 10.6921 34.6775 10.6908C29.6659 10.6882 24.6556 10.6908 19.644 10.6908H19.6453ZM19.6507 37.6499C24.7064 37.6499 29.7621 37.6539 34.8178 37.6472C36.5008 37.6459 37.3644 36.7859 37.3644 35.1425C37.3644 31.959 37.3644 28.7769 37.3644 25.5934C37.3644 25.0006 37.3617 24.9993 36.8564 25.2891C33.465 27.2314 30.0763 29.1778 26.6808 31.1149C24.3842 32.4248 22.1278 32.2038 20.1413 30.4811C18.2177 28.8126 16.3074 27.1296 14.3758 25.469C13.2769 24.5243 12.0658 24.4753 10.8908 25.3235C8.13566 27.3135 5.39392 29.3207 2.64148 31.3134C2.39685 31.4907 2.30328 31.6918 2.30595 31.9868C2.31798 33.1115 2.34873 34.2388 2.3006 35.3622C2.24713 36.6192 3.03316 37.683 4.61725 37.6671C9.6275 37.6195 14.6391 37.6499 19.6494 37.6499H19.6507ZM22.0917 8.40045C26.2798 8.40045 30.4679 8.40045 34.6561 8.40177C34.9996 8.40177 35.3432 8.38589 35.6841 8.45337C38.0903 8.92573 39.7292 10.8708 39.7318 13.3027C39.7385 19.417 39.7345 25.5312 39.7345 31.6455C39.7345 31.7791 39.7385 31.9114 39.7345 32.0451C39.7292 32.3282 39.8642 32.3388 40.0714 32.2197C40.6221 31.9022 40.959 31.443 41.0339 30.8053C41.2223 29.1751 41.4122 27.545 41.6033 25.9136C41.8921 23.4459 42.1808 20.9796 42.4709 18.5119C42.7262 16.338 42.9882 14.1654 43.2395 11.9915C43.3893 10.6987 43.5577 9.40736 43.6553 8.11068C43.7502 6.85766 42.9949 5.95395 41.7437 5.79782C39.4471 5.51202 37.1452 5.26062 34.8459 4.99467C32.6496 4.74063 30.4546 4.48658 28.2582 4.23519C26.0619 3.98379 23.8656 3.73636 21.6692 3.48496C19.4729 3.23356 17.2779 2.9729 15.0802 2.73342C13.7595 2.58919 12.4454 2.35632 11.1153 2.32456C9.86411 2.29413 9.0313 2.99804 8.85752 4.21666C8.68775 5.4022 8.55674 6.59303 8.42039 7.78254C8.35756 8.33694 8.42039 8.3978 8.98719 8.3978C13.3545 8.3978 17.7217 8.3978 22.0903 8.3978L22.0917 8.40045Z" fill="white"/>
<path d="M23.3105 14.0928C25.9132 14.0928 28.0641 16.2138 28.0614 18.7781C28.0587 21.3172 25.8597 23.4805 23.2918 23.4699C20.7064 23.4607 18.5796 21.3225 18.585 18.7371C18.5903 16.1754 20.7091 14.0915 23.3105 14.0915V14.0928ZM25.69 18.7648C25.69 17.4457 24.6032 16.3647 23.2985 16.3858C21.9871 16.407 20.8842 17.5171 20.907 18.7926C20.9297 20.0893 21.9911 21.1214 23.3038 21.124C24.6606 21.1253 25.6913 20.1078 25.6913 18.7662L25.69 18.7648Z" fill="white"/>
</g>
<defs>
<clipPath id="clip0_278_734">
<rect width="46" height="40" fill="white"/>
</clipPath>
</defs>
</svg>
