<svg width="62" height="58" viewBox="0 0 62 58" fill="none" xmlns="http://www.w3.org/2000/svg">
<path id="Vector" d="M54.558 41.4295C54.558 37.3751 54.5569 33.3207 54.5601 29.2666C54.5601 28.9716 54.5587 28.6712 54.6163 28.3827C54.7784 27.572 55.199 27.2458 56.1204 27.2175C57.213 27.1836 58.3145 27.2436 59.397 27.1375C61.5543 26.9264 62.555 25.2953 61.6894 23.5031C61.3397 22.7788 60.7819 22.1909 60.128 21.6709C51.9883 15.1967 43.8494 8.7221 35.7097 2.24817C35.2153 1.85492 34.7299 1.45167 34.2196 1.07517C32.2268 -0.396 29.6813 -0.354418 27.7483 1.18154C19.1862 7.98426 10.626 14.7889 2.06644 21.5939C1.18528 22.2946 0.359211 23.0238 0.083374 24.1168C-0.294006 25.6132 0.637207 26.8748 2.31958 27.1188C3.35775 27.2694 4.40167 27.1923 5.44308 27.2065C6.87411 27.2262 7.48015 27.7561 7.48087 29.0426C7.48375 36.969 7.48339 44.8957 7.48087 52.8221C7.48087 53.4616 7.50644 54.1018 7.67533 54.7213C8.18811 56.6022 10.0649 57.9454 12.313 57.9709C15.4167 58.006 18.5222 58.0137 21.6255 57.9696C24.4289 57.9296 26.4422 56.0468 26.4498 53.5364C26.4599 50.0058 26.4512 46.4755 26.4537 42.9449C26.4548 41.6001 26.9161 41.182 28.4044 41.1784C30.2366 41.1742 32.0684 41.171 33.9006 41.1804C35.1051 41.1865 35.6665 41.6897 35.669 42.7824C35.678 46.3356 35.6694 49.8888 35.6744 53.4423C35.6784 56.1557 37.7101 57.9712 40.7608 57.9802C43.6614 57.9889 46.5627 57.9551 49.4629 57.9896C52.5141 58.026 54.6574 55.8673 54.5875 53.3875C54.4748 49.404 54.5573 45.4163 54.5576 41.4302L54.558 41.4295ZM58.3091 24.1891C57.5562 24.1891 57.0351 24.1884 56.5144 24.1891C55.6923 24.1903 54.8853 24.2841 54.1392 24.6065C52.1266 25.4762 51.2793 26.9805 51.2782 28.9191C51.2742 37.0479 51.2775 45.1768 51.275 53.3053C51.2746 54.5866 50.7798 55.0369 49.3614 55.0398C46.5379 55.0459 43.7143 55.0453 40.8912 55.0398C39.4886 55.0372 38.9726 54.565 38.9715 53.2946C38.9682 49.7424 38.979 46.1905 38.9664 42.6383C38.9574 40.1031 36.8782 38.2506 34.0432 38.2364C32.059 38.2264 30.0749 38.2277 28.0911 38.2361C25.2031 38.248 23.1653 40.085 23.1599 42.6857C23.1527 46.215 23.1599 49.7444 23.1563 53.2737C23.1549 54.5788 22.6385 55.0382 21.1725 55.0401C18.4761 55.044 15.7801 55.0421 13.0836 55.0411C11.2277 55.0404 10.8428 54.6997 10.8428 53.0532C10.842 45.1065 10.8413 37.1601 10.8442 29.2134C10.8442 28.5961 10.8075 27.9821 10.6303 27.3857C10.0563 25.4517 8.19495 24.2358 5.78841 24.1842C5.20397 24.1716 4.60333 24.28 3.96991 24.0811C4.18201 23.8896 4.33253 23.7381 4.50034 23.6043C9.84168 19.3542 15.1837 15.1051 20.5272 10.8576C23.627 8.39363 26.7256 5.92868 29.8318 3.47146C30.7393 2.75361 31.4058 2.77134 32.3169 3.49564C33.686 4.58419 35.0547 5.67306 36.4234 6.76194C42.2214 11.3743 48.0197 15.9864 53.8169 20.5998C55.2537 21.7431 56.6862 22.8913 58.3095 24.1884L58.3091 24.1891Z" fill="#E070B0"/>
</svg>
