<svg width="107" height="75" viewBox="0 0 107 75" fill="none" xmlns="http://www.w3.org/2000/svg">
<g id="Group">
<path id="Vector" d="M77.3894 74.9999C77.0809 74.9999 76.7724 74.9839 76.4639 74.9758H78.3231C78.0146 74.9839 77.7061 74.9999 77.3975 74.9999H77.3894Z" fill="#898786"/>
<path id="Vector_2" d="M28.6277 74.9999C28.3192 74.9999 28.0107 74.9839 27.7021 74.9758H29.5614C29.2529 74.9839 28.9444 74.9999 28.6358 74.9999H28.6277Z" fill="#898786"/>
<path id="Vector_3" d="M70.5127 19.2017C67.0459 13.1786 60.5021 9.10692 53.0083 9.10692C45.5145 9.10692 38.9706 13.1786 35.5038 19.2017C33.2955 18.6636 30.9978 18.3665 28.627 18.3665C27.8963 18.3665 27.1738 18.4066 26.4512 18.4548C30.6974 8.06291 41.0003 0.706665 53.0083 0.706665C65.0162 0.706665 75.3192 8.06291 79.5654 18.4628C78.8509 18.4066 78.1202 18.3745 77.3895 18.3745C75.0188 18.3745 72.713 18.6636 70.5127 19.2097V19.2017Z" fill="url(#paint0_linear_609_200)"/>
<path id="Vector_4" d="M29.8864 66.5515C29.4723 66.5756 29.0501 66.5917 28.6279 66.5917C28.2544 66.5917 27.881 66.5836 27.5156 66.5595L29.8864 66.5515Z" fill="#898786"/>
<path id="Vector_5" d="M78.6808 74.9758H78.3154C78.4372 74.9758 78.559 74.9758 78.6808 74.9678V74.9758Z" fill="#898786"/>
<path id="Vector_6" d="M77.3903 66.5997C76.9681 66.5997 76.5459 66.5837 76.1318 66.5596H78.6568C78.2428 66.5837 77.8206 66.5997 77.3984 66.5997H77.3903Z" fill="#898786"/>
<path id="Vector_7" d="M78.6487 66.5515C78.2347 66.5756 77.8125 66.5917 77.3903 66.5917C76.9681 66.5917 76.5459 66.5756 76.1319 66.5515H49.0064C44.0133 71.5547 37.1609 74.7349 29.5615 74.9759H78.324C78.4458 74.9759 78.5675 74.9759 78.6893 74.9678V66.5515H78.6569H78.6487Z" fill="url(#paint1_linear_609_200)"/>
<path id="Vector_8" d="M79.5577 18.4548C78.8432 18.3986 78.1125 18.3664 77.3818 18.3664C75.011 18.3664 72.7053 18.6555 70.505 19.2016C63.133 21.0086 56.8895 25.6343 53.0005 31.8663C50.3132 36.1788 48.7543 41.2543 48.7543 46.6912C48.7543 47.2935 48.7219 47.8878 48.6731 48.474C48.4133 51.3812 47.5203 54.1037 46.1238 56.5129C42.8519 62.1907 36.8438 66.1339 29.8859 66.5595C29.4718 66.5836 29.0496 66.5996 28.6274 66.5996C28.254 66.5996 27.8805 66.5916 27.5151 66.5675C16.928 65.9973 8.49243 57.2999 8.49243 46.6832C8.49243 37.1184 15.3448 29.1117 24.4462 27.2003C25.7939 26.9193 27.1985 26.7667 28.6274 26.7667C30.0564 26.7667 31.5665 26.9353 32.963 27.2325C33.2228 24.3253 34.1159 21.6029 35.5123 19.1936C33.304 18.6555 31.0063 18.3584 28.6356 18.3584C27.9049 18.3584 27.1823 18.3986 26.4597 18.4467C11.6832 19.563 0 31.794 0 46.6832C0 61.5723 12.2434 74.3896 27.5151 74.9758C27.572 74.9758 27.6369 74.9758 27.6938 74.9758H29.553C37.1442 74.7349 44.0047 71.5547 48.9979 66.5515C50.5161 65.0256 51.8639 63.3311 53.0087 61.5001C53.853 60.1509 54.5756 58.7294 55.1846 57.2437C55.5174 56.4246 55.9558 55.236 56.3374 53.8065C56.4755 53.2845 56.8571 51.7747 57.1006 49.6465C57.3442 47.5184 57.3198 45.9604 57.3198 45.4705C57.3442 42.2341 59.0248 37.1345 62.7352 33.1673C66.3968 29.2482 70.7811 27.7384 73.0625 27.2405C75.1978 26.7747 77.398 26.7747 77.398 26.7747C78.8351 26.7747 80.2315 26.9273 81.5793 27.2084C90.6806 29.1197 97.533 37.1265 97.533 46.6912C97.533 57.2517 89.1786 65.917 78.6646 66.5595H78.697V74.9758C93.8795 74.3012 106.034 61.8775 106.034 46.6912C106.034 31.5049 94.3504 19.563 79.582 18.4628L79.5577 18.4548Z" fill="#E070B0"/>
</g>
<defs>
<linearGradient id="paint0_linear_609_200" x1="38.9219" y1="2.93121" x2="67.9597" y2="32.2876" gradientUnits="userSpaceOnUse">
<stop offset="0.27" stop-color="#E070B0"/>
<stop offset="0.39" stop-color="#D672AB"/>
<stop offset="0.59" stop-color="#BE789F"/>
<stop offset="0.84" stop-color="#96838C"/>
<stop offset="0.91" stop-color="#898786"/>
</linearGradient>
<linearGradient id="paint1_linear_609_200" x1="78.6812" y1="70.7677" x2="29.5615" y2="70.7677" gradientUnits="userSpaceOnUse">
<stop offset="0.27" stop-color="#E070B0"/>
<stop offset="0.39" stop-color="#D672AB"/>
<stop offset="0.59" stop-color="#BE789F"/>
<stop offset="0.84" stop-color="#96838C"/>
<stop offset="0.91" stop-color="#898786"/>
</linearGradient>
</defs>
</svg>
