<?xml version="1.0" encoding="UTF-8"?>
<!DOCTYPE svg PUBLIC "-//W3C//DTD SVG 1.1//EN" "http://www.w3.org/Graphics/SVG/1.1/DTD/svg11.dtd">
<svg xmlns="http://www.w3.org/2000/svg" version="1.1" width="708px" height="200px" style="shape-rendering:geometricPrecision; text-rendering:geometricPrecision; image-rendering:optimizeQuality; fill-rule:evenodd; clip-rule:evenodd" xmlns:xlink="http://www.w3.org/1999/xlink">
<g><path style="opacity:0.435" fill="#fefffe" d="M 515.5,-0.5 C 528.167,-0.5 540.833,-0.5 553.5,-0.5C 554.15,2.47157 554.483,5.8049 554.5,9.5C 541.5,9.5 528.5,9.5 515.5,9.5C 515.5,6.16667 515.5,2.83333 515.5,-0.5 Z"/></g>
<g><path style="opacity:0.965" fill="#df70af" d="M 158.5,3.5 C 156.088,6.41722 153.421,9.25055 150.5,12C 150.833,12.3333 151.167,12.6667 151.5,13C 146.62,16.3168 142.286,20.1501 138.5,24.5C 109.188,27.4802 92.1879,43.4802 87.5,72.5C 60.1107,68.2783 39.944,78.2783 27,102.5C 17.782,128.168 23.6153,149.668 44.5,167C 73.8006,183.34 98.9673,178.506 120,152.5C 126.741,140.4 129.741,127.4 129,113.5C 133.697,85.5836 148.864,65.7503 174.5,54C 178.154,52.7262 181.82,51.5596 185.5,50.5C 189.79,49.5755 194.124,48.9088 198.5,48.5C 202.5,48.5 206.5,48.5 210.5,48.5C 242.53,52.028 264.697,68.6947 277,98.5C 287.149,135.389 276.982,165.222 246.5,188C 237.369,193.536 227.703,197.369 217.5,199.5C 200.167,199.5 182.833,199.5 165.5,199.5C 164.859,198.518 164.193,197.518 163.5,196.5C 164.329,189.951 164.663,183.284 164.5,176.5C 180.503,176.667 196.503,176.5 212.5,176C 236.885,171.282 251.718,156.782 257,132.5C 259.569,104.121 247.736,84.6205 221.5,74C 187.396,66.9651 164.563,79.7984 153,112.5C 153.877,136.702 146.711,158.036 131.5,176.5C 129.973,176.427 128.973,177.094 128.5,178.5C 124.518,181.152 120.851,184.152 117.5,187.5C 114.331,188.917 111.331,190.583 108.5,192.5C 104.617,193.459 100.95,194.792 97.5,196.5C 92.7475,197.667 88.0808,198.667 83.5,199.5C 76.8333,199.5 70.1667,199.5 63.5,199.5C 36.3178,194.135 16.8178,178.801 5,153.5C 2.83236,147.469 0.999023,141.469 -0.5,135.5C -0.5,127.5 -0.5,119.5 -0.5,111.5C 8.40616,74.6012 31.7395,53.2679 69.5,47.5C 88.1799,10.6601 117.847,-4.00655 158.5,3.5 Z M 164.5,176.5 C 161.5,176.5 158.5,176.5 155.5,176.5C 151.5,176.5 147.5,176.5 143.5,176.5C 139.5,176.5 135.5,176.5 131.5,176.5C 146.711,158.036 153.877,136.702 153,112.5C 164.563,79.7984 187.396,66.9651 221.5,74C 247.736,84.6205 259.569,104.121 257,132.5C 251.718,156.782 236.885,171.282 212.5,176C 196.503,176.5 180.503,176.667 164.5,176.5 Z"/></g>
<g><path style="opacity:0.806" fill="#fefffe" d="M 586.5,0.5 C 590.884,0.17443 595.217,0.507763 599.5,1.5C 596.683,4.81785 593.683,7.98451 590.5,11C 586.833,11.6667 583.167,11.6667 579.5,11C 581.72,7.38538 584.053,3.88538 586.5,0.5 Z"/></g>
<g><path style="opacity:0.822" fill="#fefffe" d="M 644.5,0.5 C 648.833,0.5 653.167,0.5 657.5,0.5C 657.5,4.16667 657.5,7.83333 657.5,11.5C 653.167,11.5 648.833,11.5 644.5,11.5C 644.5,7.83333 644.5,4.16667 644.5,0.5 Z"/></g>
<g><path style="opacity:0.915" fill="#fefffe" d="M 361.5,2.5 C 368.91,2.14852 375.91,3.64852 382.5,7C 388.014,11.5287 390.681,17.362 390.5,24.5C 385.833,24.5 381.167,24.5 376.5,24.5C 375.14,15.8113 370.14,12.6447 361.5,15C 355.454,18.0974 353.121,23.0974 354.5,30C 353.824,44.3304 360.158,48.8304 373.5,43.5C 375.986,41.422 376.986,38.7553 376.5,35.5C 381.167,35.5 385.833,35.5 390.5,35.5C 389.207,50.286 381.04,57.6193 366,57.5C 352.04,58.2037 343.373,51.8703 340,38.5C 339.161,31.4333 339.494,24.4333 341,17.5C 345.146,8.69011 351.979,3.69011 361.5,2.5 Z"/></g>
<g><path style="opacity:0.985" fill="#d571ab" d="M 158.5,3.5 C 163.534,4.39821 168.201,6.06488 172.5,8.5C 167.909,12.4248 163.575,16.7581 159.5,21.5C 157.736,23.2776 155.736,24.6109 153.5,25.5C 148.537,24.746 143.537,24.4126 138.5,24.5C 142.286,20.1501 146.62,16.3168 151.5,13C 151.167,12.6667 150.833,12.3333 150.5,12C 153.421,9.25055 156.088,6.41722 158.5,3.5 Z"/></g>
<g><path style="opacity:0.922" fill="#fefffe" d="M 413.5,14.5 C 430.588,13.5883 438.588,21.5883 437.5,38.5C 428.167,38.5 418.833,38.5 409.5,38.5C 409.635,46.4214 413.635,49.2547 421.5,47C 423.671,45.8261 424.671,43.9928 424.5,41.5C 428.833,41.5 433.167,41.5 437.5,41.5C 437.555,48.6205 434.221,53.4538 427.5,56C 403.149,60.6474 392.982,50.8141 397,26.5C 400.196,19.167 405.696,15.167 413.5,14.5 Z M 413.5,24.5 C 419.176,23.166 422.843,25.166 424.5,30.5C 419.544,31.4941 414.544,31.8275 409.5,31.5C 409.571,28.3477 410.905,26.0144 413.5,24.5 Z"/></g>
<g><path style="opacity:0.909" fill="#fefffe" d="M 466.5,14.5 C 472.838,13.942 477.672,16.2753 481,21.5C 486.159,15.2495 492.659,13.4162 500.5,16C 504.521,17.8679 506.687,21.0346 507,25.5C 507.5,35.828 507.666,46.1613 507.5,56.5C 502.833,56.5 498.167,56.5 493.5,56.5C 493.666,46.8276 493.5,37.1609 493,27.5C 489.027,24.5611 485.693,25.2278 483,29.5C 482.5,38.4938 482.334,47.4938 482.5,56.5C 478.167,56.5 473.833,56.5 469.5,56.5C 469.666,47.4938 469.5,38.4938 469,29.5C 464.993,24.025 461.326,24.3583 458,30.5C 457.5,39.1603 457.334,47.8269 457.5,56.5C 453.167,56.5 448.833,56.5 444.5,56.5C 444.5,42.8333 444.5,29.1667 444.5,15.5C 448.167,15.5 451.833,15.5 455.5,15.5C 455.699,21.4406 457.366,21.9406 460.5,17C 462.611,16.1553 464.611,15.322 466.5,14.5 Z"/></g>
<g><path style="opacity:0.924" fill="#fefffe" d="M 582.5,14.5 C 599.588,13.5883 607.588,21.5883 606.5,38.5C 597.167,38.5 587.833,38.5 578.5,38.5C 577.721,44.6264 580.388,47.6264 586.5,47.5C 590.777,47.8705 593.444,46.0372 594.5,42C 598.486,41.5012 602.486,41.3345 606.5,41.5C 607.006,48.9908 603.672,53.8241 596.5,56C 570.795,60.2964 560.962,49.7964 567,24.5C 570.785,18.8565 575.952,15.5232 582.5,14.5 Z M 582.5,24.5 C 588.781,23.1233 592.448,25.4566 593.5,31.5C 588.5,31.5 583.5,31.5 578.5,31.5C 578.961,28.6967 580.295,26.3634 582.5,24.5 Z"/></g>
<g><path style="opacity:0.899" fill="#fefffe" d="M 633.5,14.5 C 635.861,14.6741 638.194,15.0074 640.5,15.5C 640.5,19.5 640.5,23.5 640.5,27.5C 637.482,27.3354 634.482,27.502 631.5,28C 630,28.8333 628.833,30 628,31.5C 626.67,39.7733 626.17,48.1067 626.5,56.5C 622.167,56.5 617.833,56.5 613.5,56.5C 613.5,42.8333 613.5,29.1667 613.5,15.5C 617.226,15.1774 620.893,15.5108 624.5,16.5C 625.204,21.6305 626.537,21.7971 628.5,17C 630.315,16.2432 631.981,15.4098 633.5,14.5 Z"/></g>
<g><path style="opacity:0.921" fill="#fefffe" d="M 707.5,28.5 C 707.5,33.5 707.5,38.5 707.5,43.5C 702.706,54.8557 694.04,59.3557 681.5,57C 670.22,54.8817 664.553,48.0484 664.5,36.5C 666.291,18.0823 676.291,11.2489 694.5,16C 701.347,17.6823 705.68,21.849 707.5,28.5 Z M 683.5,24.5 C 688.67,23.8154 692.17,25.8154 694,30.5C 694.81,35.2574 694.476,39.9241 693,44.5C 683.518,50.0627 678.351,47.2293 677.5,36C 677.264,30.8399 679.264,27.0065 683.5,24.5 Z"/></g>
<g><path style="opacity:0.923" fill="#fefffe" d="M 515.5,15.5 C 519.833,15.5 524.167,15.5 528.5,15.5C 528.5,29.1667 528.5,42.8333 528.5,56.5C 524.167,56.5 519.833,56.5 515.5,56.5C 515.5,42.8333 515.5,29.1667 515.5,15.5 Z"/></g>
<g><path style="opacity:0.914" fill="#fefffe" d="M 534.5,15.5 C 543.167,15.5 551.833,15.5 560.5,15.5C 560.5,18.8333 560.5,22.1667 560.5,25.5C 557.833,25.5 555.167,25.5 552.5,25.5C 552.334,31.8421 552.5,38.1754 553,44.5C 553.374,45.4162 553.874,46.2496 554.5,47C 556.473,47.4955 558.473,47.6621 560.5,47.5C 560.5,50.5 560.5,53.5 560.5,56.5C 556.192,57.3676 551.859,57.5343 547.5,57C 544.804,56.3102 542.637,54.8102 541,52.5C 539.557,43.6079 539.057,34.6079 539.5,25.5C 537.833,25.5 536.167,25.5 534.5,25.5C 534.5,22.1667 534.5,18.8333 534.5,15.5 Z"/></g>
<g><path style="opacity:0.923" fill="#fefffe" d="M 644.5,15.5 C 648.833,15.5 653.167,15.5 657.5,15.5C 657.5,29.1667 657.5,42.8333 657.5,56.5C 653.167,56.5 648.833,56.5 644.5,56.5C 644.5,42.8333 644.5,29.1667 644.5,15.5 Z"/></g>
<g><path style="opacity:0.975" fill="#ba789d" d="M 182.5,14.5 C 185.37,15.4333 187.704,17.1 189.5,19.5C 185.537,25.4649 180.204,30.7982 173.5,35.5C 170.825,33.8302 168.159,32.1635 165.5,30.5C 168.603,28.5767 171.603,26.41 174.5,24C 177.031,20.6425 179.698,17.4758 182.5,14.5 Z"/></g>
<g><path style="opacity:0.849" fill="#c675a3" d="M 172.5,8.5 C 176.505,9.4977 179.839,11.4977 182.5,14.5C 179.698,17.4758 177.031,20.6425 174.5,24C 171.603,26.41 168.603,28.5767 165.5,30.5C 161.429,28.8152 157.429,27.1485 153.5,25.5C 155.736,24.6109 157.736,23.2776 159.5,21.5C 163.575,16.7581 167.909,12.4248 172.5,8.5 Z"/></g>
<g><path style="opacity:0.985" fill="#a18091" d="M 197.5,27.5 C 199.543,28.5794 200.876,30.246 201.5,32.5C 196.111,38.2192 190.778,43.8858 185.5,49.5C 183.512,46.8717 181.512,44.205 179.5,41.5C 180.583,41.4606 181.583,41.1272 182.5,40.5C 186.509,36.4572 190.509,32.4572 194.5,28.5C 195.417,27.8728 196.417,27.5394 197.5,27.5 Z"/></g>
<g><path style="opacity:0.992" fill="#ad7c97" d="M 189.5,19.5 C 192.5,21.8333 195.167,24.5 197.5,27.5C 196.417,27.5394 195.417,27.8728 194.5,28.5C 190.509,32.4572 186.509,36.4572 182.5,40.5C 181.583,41.1272 180.583,41.4606 179.5,41.5C 177.167,39.8333 175.167,37.8333 173.5,35.5C 180.204,30.7982 185.537,25.4649 189.5,19.5 Z"/></g>
<g><path style="opacity:0.973" fill="#97828c" d="M 201.5,32.5 C 203.95,34.6291 205.617,37.2957 206.5,40.5C 203.317,42.7368 200.651,45.4034 198.5,48.5C 194.124,48.9088 189.79,49.5755 185.5,50.5C 185.5,50.1667 185.5,49.8333 185.5,49.5C 190.778,43.8858 196.111,38.2192 201.5,32.5 Z"/></g>
<g><path style="opacity:0.995" fill="#8b8687" d="M 206.5,40.5 C 208.341,42.8485 209.674,45.5152 210.5,48.5C 206.5,48.5 202.5,48.5 198.5,48.5C 200.651,45.4034 203.317,42.7368 206.5,40.5 Z"/></g>
<g><path style="opacity:0.833" fill="#fefffe" d="M 395.5,74.5 C 399.833,74.5 404.167,74.5 408.5,74.5C 408.5,78.1667 408.5,81.8333 408.5,85.5C 404.167,85.5 399.833,85.5 395.5,85.5C 395.5,81.8333 395.5,78.1667 395.5,74.5 Z"/></g>
<g><path style="opacity:0.842" fill="#fefffe" d="M 465.5,74.5 C 469.833,74.5 474.167,74.5 478.5,74.5C 478.5,78.1667 478.5,81.8333 478.5,85.5C 474.167,85.5 469.833,85.5 465.5,85.5C 465.5,81.8333 465.5,78.1667 465.5,74.5 Z"/></g>
<g><path style="opacity:0.931" fill="#fefffe" d="M 563.5,74.5 C 567.833,74.5 572.167,74.5 576.5,74.5C 576.5,93.1667 576.5,111.833 576.5,130.5C 572.167,130.5 567.833,130.5 563.5,130.5C 563.5,111.833 563.5,93.1667 563.5,74.5 Z"/></g>
<g><path style="opacity:0.933" fill="#fefffe" d="M 339.5,77.5 C 348.839,77.3335 358.173,77.5002 367.5,78C 381.818,80.5912 388.818,89.2578 388.5,104C 388.818,118.742 381.818,127.409 367.5,130C 358.173,130.5 348.839,130.666 339.5,130.5C 339.5,112.833 339.5,95.1667 339.5,77.5 Z M 353.5,89.5 C 366.557,86.3372 373.224,91.3372 373.5,104.5C 374.075,109.616 372.408,113.783 368.5,117C 363.628,118.388 358.628,118.888 353.5,118.5C 353.5,108.833 353.5,99.1667 353.5,89.5 Z"/></g>
<g><path style="opacity:0.919" fill="#fefffe" d="M 492.5,78.5 C 495.833,78.5 499.167,78.5 502.5,78.5C 502.5,82.1667 502.5,85.8333 502.5,89.5C 505.167,89.5 507.833,89.5 510.5,89.5C 510.5,92.8333 510.5,96.1667 510.5,99.5C 507.833,99.5 505.167,99.5 502.5,99.5C 502.334,106.175 502.5,112.842 503,119.5C 505.106,121.291 507.606,121.958 510.5,121.5C 510.5,124.5 510.5,127.5 510.5,130.5C 506.192,131.368 501.859,131.534 497.5,131C 494.966,130.484 492.8,129.317 491,127.5C 489.555,118.274 489.055,108.94 489.5,99.5C 487.833,99.5 486.167,99.5 484.5,99.5C 484.5,96.1667 484.5,92.8333 484.5,89.5C 486.467,89.7394 488.301,89.4061 490,88.5C 490.776,85.1114 491.609,81.7781 492.5,78.5 Z"/></g>
<g><path style="opacity:0.9" fill="#fefffe" d="M 448.5,82.5 C 452.5,82.5 456.5,82.5 460.5,82.5C 460.811,88.3624 458.144,92.1957 452.5,94C 457.197,99.0395 457.697,104.539 454,110.5C 451.742,112.43 449.242,113.93 446.5,115C 440.801,115.312 435.134,115.812 429.5,116.5C 429.5,117.5 429.5,118.5 429.5,119.5C 436.508,119.334 443.508,119.5 450.5,120C 460.393,122.709 463.226,128.875 459,138.5C 456.519,142.314 453.019,144.481 448.5,145C 438.965,145.795 429.465,145.628 420,144.5C 411.957,139.219 411.457,133.219 418.5,126.5C 414.88,120.272 416.213,115.439 422.5,112C 415.833,105.333 415.833,98.6667 422.5,92C 429.581,88.8653 436.914,87.8653 444.5,89C 447.238,87.6884 448.572,85.5217 448.5,82.5 Z M 436.5,96.5 C 443.152,98.2712 444.485,101.771 440.5,107C 433.026,109.508 429.859,107.008 431,99.5C 432.719,98.1312 434.552,97.1312 436.5,96.5 Z M 427.5,130.5 C 433.868,130.17 440.202,130.504 446.5,131.5C 447.859,133.306 447.525,134.806 445.5,136C 439.472,136.83 433.472,136.664 427.5,135.5C 426.185,133.801 426.185,132.135 427.5,130.5 Z"/></g>
<g><path style="opacity:0.924" fill="#fefffe" d="M 531.5,88.5 C 552.348,88.568 559.848,98.9013 554,119.5C 555.049,121.107 556.549,121.773 558.5,121.5C 558.5,124.5 558.5,127.5 558.5,130.5C 553.297,132.114 548.297,131.614 543.5,129C 542.874,128.25 542.374,127.416 542,126.5C 533.248,133.036 524.581,133.036 516,126.5C 511.846,114.645 516.013,107.812 528.5,106C 532.486,105.501 536.486,105.334 540.5,105.5C 541.333,100.669 539.333,98.336 534.5,98.5C 531.729,98.0816 529.729,99.0816 528.5,101.5C 524.217,102.492 519.884,102.826 515.5,102.5C 515.348,98.1171 517.015,94.6171 520.5,92C 524.161,90.4075 527.828,89.2408 531.5,88.5 Z M 537.5,112.5 C 538.5,112.5 539.5,112.5 540.5,112.5C 540.33,120.598 536.33,123.265 528.5,120.5C 527.572,119.232 527.405,117.899 528,116.5C 530.888,114.288 534.055,112.954 537.5,112.5 Z"/></g>
<g><path style="opacity:0.923" fill="#fefffe" d="M 395.5,89.5 C 399.833,89.5 404.167,89.5 408.5,89.5C 408.5,103.167 408.5,116.833 408.5,130.5C 404.167,130.5 399.833,130.5 395.5,130.5C 395.5,116.833 395.5,103.167 395.5,89.5 Z"/></g>
<g><path style="opacity:0.932" fill="#fefffe" d="M 465.5,89.5 C 469.833,89.5 474.167,89.5 478.5,89.5C 478.5,103.167 478.5,116.833 478.5,130.5C 474.167,130.5 469.833,130.5 465.5,130.5C 465.5,116.833 465.5,103.167 465.5,89.5 Z"/></g>
<g><path style="opacity:0.911" fill="#efd5e6" d="M 378.5,156.5 C 380.833,156.5 383.167,156.5 385.5,156.5C 385.5,157.833 385.5,159.167 385.5,160.5C 381.5,159.833 379.833,161.5 380.5,165.5C 382.167,165.5 383.833,165.5 385.5,165.5C 385.5,166.833 385.5,168.167 385.5,169.5C 383.833,169.5 382.167,169.5 380.5,169.5C 380.5,176.167 380.5,182.833 380.5,189.5C 379.167,189.5 377.833,189.5 376.5,189.5C 376.5,182.833 376.5,176.167 376.5,169.5C 375.167,169.5 373.833,169.5 372.5,169.5C 372.5,168.167 372.5,166.833 372.5,165.5C 373.833,165.5 375.167,165.5 376.5,165.5C 376.065,162.162 376.732,159.162 378.5,156.5 Z"/></g>
<g><path style="opacity:0.703" fill="#efd6e6" d="M 390.5,156.5 C 392.167,156.5 393.833,156.5 395.5,156.5C 395.5,158.167 395.5,159.833 395.5,161.5C 393.833,161.5 392.167,161.5 390.5,161.5C 390.5,159.833 390.5,158.167 390.5,156.5 Z"/></g>
<g><path style="opacity:0.745" fill="#efd5e6" d="M 423.5,156.5 C 425.167,156.5 426.833,156.5 428.5,156.5C 428.5,158.167 428.5,159.833 428.5,161.5C 426.833,161.5 425.167,161.5 423.5,161.5C 423.5,159.833 423.5,158.167 423.5,156.5 Z"/></g>
<g><path style="opacity:0.79" fill="#efd5e6" d="M 458.5,156.5 C 460.167,156.5 461.833,156.5 463.5,156.5C 463.5,167.5 463.5,178.5 463.5,189.5C 461.833,189.5 460.167,189.5 458.5,189.5C 458.5,178.5 458.5,167.5 458.5,156.5 Z"/></g>
<g><path style="opacity:0.873" fill="#efd5e6" d="M 348.5,157.5 C 365.654,155.825 372.487,163.491 369,180.5C 364.652,188.915 357.819,191.748 348.5,189C 341.397,186.376 338.064,181.209 338.5,173.5C 338.274,165.764 341.607,160.431 348.5,157.5 Z M 351.5,161.5 C 362.411,161.941 366.578,167.607 364,178.5C 360.558,184.871 355.392,186.705 348.5,184C 342.881,178.216 342.047,171.716 346,164.5C 347.876,163.391 349.709,162.391 351.5,161.5 Z"/></g>
<g><path style="opacity:0.837" fill="#efd5e6" d="M 405.5,164.5 C 413.583,162.698 418.583,165.698 420.5,173.5C 418.833,174.833 417.167,174.833 415.5,173.5C 413.009,167.769 409.509,167.102 405,171.5C 404.333,175.167 404.333,178.833 405,182.5C 407.21,185.29 410.044,186.123 413.5,185C 414.861,183.416 415.528,181.582 415.5,179.5C 417.288,179.215 418.955,179.548 420.5,180.5C 418.835,188.97 413.835,191.804 405.5,189C 403.714,188.215 402.214,187.049 401,185.5C 399,179.833 399,174.167 401,168.5C 402.397,166.93 403.897,165.596 405.5,164.5 Z"/></g>
<g><path style="opacity:0.854" fill="#efd5e6" d="M 438.5,164.5 C 441.85,164.335 445.183,164.502 448.5,165C 449.931,165.465 451.097,166.299 452,167.5C 452.333,173.167 452.667,178.833 453,184.5C 454.011,185.337 455.178,185.67 456.5,185.5C 456.923,188.243 455.756,189.576 453,189.5C 450.849,189.357 449.182,188.357 448,186.5C 443.585,190.051 438.918,190.384 434,187.5C 431.46,182.903 432.293,179.07 436.5,176C 440.418,174.844 444.418,174.344 448.5,174.5C 448.438,168.977 445.771,167.144 440.5,169C 439.027,169.71 438.36,170.876 438.5,172.5C 436.833,172.5 435.167,172.5 433.5,172.5C 433.536,168.8 435.203,166.133 438.5,164.5 Z M 440.5,178.5 C 448.961,177.332 450.294,179.499 444.5,185C 442.5,185.667 440.5,185.667 438.5,185C 436.933,182.094 437.6,179.928 440.5,178.5 Z"/></g>
<g><path style="opacity:0.787" fill="#efd6e6" d="M 390.5,165.5 C 392.167,165.5 393.833,165.5 395.5,165.5C 395.5,173.5 395.5,181.5 395.5,189.5C 393.833,189.5 392.167,189.5 390.5,189.5C 390.5,181.5 390.5,173.5 390.5,165.5 Z"/></g>
<g><path style="opacity:0.787" fill="#efd6e7" d="M 423.5,165.5 C 425.167,165.5 426.833,165.5 428.5,165.5C 428.5,173.5 428.5,181.5 428.5,189.5C 426.833,189.5 425.167,189.5 423.5,189.5C 423.5,181.5 423.5,173.5 423.5,165.5 Z"/></g>
<g><path style="opacity:0.986" fill="#c376a1" d="M 131.5,176.5 C 135.5,176.5 139.5,176.5 143.5,176.5C 142.909,177.151 142.243,177.818 141.5,178.5C 142.192,180.335 141.858,182.168 140.5,184C 141.167,185.333 141.833,186.667 142.5,188C 141.613,191.657 141.613,195.491 142.5,199.5C 138.167,199.5 133.833,199.5 129.5,199.5C 129.037,192.778 128.704,185.778 128.5,178.5C 128.973,177.094 129.973,176.427 131.5,176.5 Z"/></g>
<g><path style="opacity:0.976" fill="#cf73a7" d="M 143.5,176.5 C 147.5,176.5 151.5,176.5 155.5,176.5C 155.778,184.532 155.778,192.199 155.5,199.5C 151.167,199.5 146.833,199.5 142.5,199.5C 141.613,195.491 141.613,191.657 142.5,188C 141.833,186.667 141.167,185.333 140.5,184C 141.858,182.168 142.192,180.335 141.5,178.5C 142.243,177.818 142.909,177.151 143.5,176.5 Z"/></g>
<g><path style="opacity:0.972" fill="#d771ab" d="M 155.5,176.5 C 158.5,176.5 161.5,176.5 164.5,176.5C 164.663,183.284 164.329,189.951 163.5,196.5C 164.193,197.518 164.859,198.518 165.5,199.5C 162.167,199.5 158.833,199.5 155.5,199.5C 155.778,192.199 155.778,184.532 155.5,176.5 Z"/></g>
<g><path style="opacity:0.994" fill="#b6799b" d="M 128.5,178.5 C 128.704,185.778 129.037,192.778 129.5,199.5C 126.167,199.5 122.833,199.5 119.5,199.5C 118.91,197.543 118.91,195.376 119.5,193C 118.891,191.052 118.224,189.218 117.5,187.5C 120.851,184.152 124.518,181.152 128.5,178.5 Z"/></g>
<g><path style="opacity:0.994" fill="#aa7d95" d="M 117.5,187.5 C 118.224,189.218 118.891,191.052 119.5,193C 118.91,195.376 118.91,197.543 119.5,199.5C 116.167,199.5 112.833,199.5 109.5,199.5C 109.191,196.801 108.858,194.468 108.5,192.5C 111.331,190.583 114.331,188.917 117.5,187.5 Z"/></g>
<g><path style="opacity:0.983" fill="#a08091" d="M 108.5,192.5 C 108.858,194.468 109.191,196.801 109.5,199.5C 106.5,199.5 103.5,199.5 100.5,199.5C 100.082,198.778 99.4158,198.278 98.5,198C 99.7119,196.893 99.3786,196.393 97.5,196.5C 100.95,194.792 104.617,193.459 108.5,192.5 Z"/></g>
<g><path style="opacity:0.911" fill="#92848a" d="M 97.5,196.5 C 99.3786,196.393 99.7119,196.893 98.5,198C 99.4158,198.278 100.082,198.778 100.5,199.5C 94.8333,199.5 89.1667,199.5 83.5,199.5C 88.0808,198.667 92.7475,197.667 97.5,196.5 Z"/></g>
</svg>
