<svg width="140" height="137" viewBox="0 0 140 137" fill="none" xmlns="http://www.w3.org/2000/svg">
<g id="Frame" clip-path="url(#clip0_391_37)">
<g id="Group">
<g id="Layer 2">
<g id="Group_2">
<path id="Vector" d="M127.471 44.1616L8.1748 63.9717L20.2296 136.565L139.526 116.755L127.471 44.1616Z" fill="#EFE1CA"/>
<path id="Vector_2" d="M10.4541 63.5932L125.191 44.5402L79.2918 93.1567C78.0783 94.4771 76.4768 95.3496 74.7263 95.6403C72.9758 95.931 71.1782 95.623 69.6031 94.7655L10.4541 63.5932Z" fill="#D3B690"/>
<path id="Vector_3" d="M124.235 44.699C122.535 44.9812 120.973 45.8368 119.829 47.1353L78.9869 93.2073C77.865 94.5126 76.3652 95.3682 74.7267 95.6403C73.0882 95.9124 71.3923 95.5875 69.9088 94.7148L16.3681 64.3158C14.8676 63.4669 13.1209 63.1504 11.4111 63.4343L8.1748 63.9717L20.2296 136.565L139.526 116.755L127.471 44.1616L124.235 44.699Z" fill="#EFE1CA"/>
<path id="Vector_4" d="M139.526 116.755L20.2296 136.565L36.3134 90.0869C37.5859 86.414 40.7014 83.7633 44.5382 83.1262L99.2607 74.039C103.087 73.4036 106.902 74.9035 109.294 77.9679L139.536 116.754L139.526 116.755Z" fill="#D3B690"/>
<path id="Vector_5" d="M139.526 116.755L20.2295 136.565L38.4107 91.0667C39.7712 87.6721 42.7967 85.235 46.4096 84.635L97.967 76.0735C101.58 75.4736 105.231 76.802 107.615 79.5747L139.526 116.755Z" fill="#F4EBD9"/>
<path id="Vector_6" d="M127.471 44.1616L8.1746 63.9718L55.8359 13.0548C57.0968 11.7055 58.7679 10.811 60.5897 10.5085C62.4114 10.206 64.2819 10.5124 65.9113 11.3817L127.471 44.1616Z" fill="#FCF3E3"/>
<g id="Vector_7" style="mix-blend-mode:multiply">
<path d="M15.0237 62.8344L58.4479 15.4969C59.1675 14.7291 60.1379 14.2123 61.176 14.04C62.2141 13.8676 63.2994 14.0429 64.2285 14.537L121.589 45.1384L15.0237 62.8344Z" fill="#EFE1CA"/>
</g>
</g>
</g>
</g>
</g>
<defs>
<clipPath id="clip0_391_37">
<rect width="120.93" height="117.742" fill="white" transform="translate(0.941406 20.4136) rotate(-9.42839)"/>
</clipPath>
</defs>
</svg>
