<svg width="42" height="30" viewBox="0 0 42 30" xmlns="http://www.w3.org/2000/svg">
<g clip-path="url(#clip0_278_732)">
<path d="M0.000237056 3.02345C0.341905 1.8034 1.00334 0.84892 2.17509 0.31779C2.61641 0.118893 3.07416 0 3.56147 0C15.1694 0.00111115 26.7785 -0.0022223 38.3864 0.00444461C40.3466 0.00444461 41.9915 1.67784 41.9926 3.67125C42.0002 11.2238 42.0002 18.7763 41.9926 26.3276C41.9904 28.3211 40.3477 29.9944 38.3864 29.9956C26.7916 30.0022 15.1968 30.0011 3.60199 29.9967C2.0382 29.9967 0.654006 28.9455 0.142599 27.4088C0.0944148 27.2643 0.0462308 27.121 -0.00195312 26.9766C0.000237056 18.9929 0.000237056 11.0082 0.000237056 3.02345ZM4.39045 2.57343C4.53391 2.72899 4.61385 2.82122 4.69927 2.909C9.74107 8.04585 14.7829 13.1827 19.8268 18.3185C20.5989 19.104 21.372 19.1063 22.1408 18.3218C23.9039 16.5239 25.6615 14.7194 27.4268 12.9227C30.6956 9.59369 33.9688 6.26912 37.2377 2.94011C37.3373 2.83899 37.4841 2.76566 37.5049 2.57343H4.39045ZM4.40907 27.4121H37.5509C37.483 27.3255 37.4534 27.2788 37.4162 27.241C34.0893 23.8564 30.7602 20.4741 27.4377 17.084C27.2187 16.8595 27.0961 16.9251 26.9121 17.114C25.886 18.1696 24.8533 19.2185 23.8185 20.2641C22.1813 21.9175 19.783 21.9141 18.1448 20.2563C17.1581 19.2585 16.178 18.254 15.1913 17.2562C14.7511 16.8117 14.8431 16.7751 14.3842 17.2418C11.1625 20.5174 7.94074 23.7931 4.72008 27.0699C4.6259 27.1655 4.53829 27.2688 4.40798 27.411L4.40907 27.4121ZM2.51566 25.5498C2.69635 25.4976 2.77191 25.3743 2.86609 25.2787C6.11741 21.9753 9.36216 18.6662 12.6244 15.3739C12.9289 15.0672 12.9004 14.9106 12.6146 14.6217C9.36435 11.3371 6.12836 8.03808 2.8869 4.74462C2.78505 4.64128 2.7073 4.50017 2.51566 4.4635V25.5509V25.5498ZM39.4695 4.46572C39.3129 4.47572 39.2592 4.56461 39.1946 4.63017C35.8863 7.99252 32.5814 11.3582 29.2665 14.7139C29.0179 14.9661 29.0902 15.1028 29.2972 15.3128C32.5803 18.6418 35.8568 21.9775 39.1388 25.3087C39.2253 25.3965 39.2855 25.5498 39.4695 25.5154V4.46572Z" fill="white"/>
</g>
<defs>
<clipPath id="clip0_278_732">
<rect width="42" height="30" fill="white"/>
</clipPath>
</defs>
</svg>
