<svg width="60" height="44" viewBox="0 0 60 44" fill="none" xmlns="http://www.w3.org/2000/svg">
<g id="Group 13">
<path id="Vector" d="M59.9987 32.7522C59.9891 32.7103 59.9795 32.6671 59.9699 32.6251C59.9494 32.5387 59.929 32.4488 59.9134 32.3612C59.4043 29.4655 57.9465 26.9669 55.6962 25.1364C53.5516 23.3899 50.851 22.4291 48.0928 22.4291C45.9806 22.4291 43.8756 23.0024 42.0024 24.0856C41.7442 24.2356 41.5521 24.3015 41.3804 24.3015C41.175 24.3015 40.9781 24.2044 40.7043 23.9669C38.0014 21.623 34.8277 20.3119 31.2709 20.072C30.8446 20.0432 30.4159 20.0288 29.9993 20.0288C25.7088 20.0288 21.8951 21.5558 18.6638 24.5666C18.4825 24.7358 18.354 24.8041 18.2183 24.8041C18.1174 24.8041 18.0022 24.7658 17.8569 24.6842C16.0569 23.673 14.1104 23.1608 12.069 23.1608C11.2177 23.1608 10.3327 23.2495 9.4381 23.4259C7.13258 23.8805 4.93513 25.1112 3.25041 26.8925C1.5669 28.6738 0.457371 30.9373 0.128353 33.268C-0.0265488 34.3644 -0.00613531 35.4788 0.0130774 36.5547C0.0214829 37.0454 0.0310893 37.5516 0.0238845 38.0482C0.0118766 38.8722 0.265244 39.5716 0.756368 40.0706C1.2595 40.5816 1.97877 40.8527 2.83614 40.8539C4.00932 40.8563 5.18249 40.8563 6.35686 40.8563C7.13018 40.8563 7.90348 40.8563 8.6768 40.8563C9.45011 40.8563 10.2234 40.8563 10.9967 40.8563H11.2885C11.5503 40.8563 11.8121 40.8563 12.0738 40.8563C12.3452 40.8563 12.6178 40.8563 12.8892 40.8563H13.3287C13.5436 40.8563 13.6217 40.8899 13.6673 41.0866C14.1368 43.0994 15.2619 43.9978 17.3141 43.9978C21.5733 43.9978 25.8325 43.9978 30.0929 43.9978C34.3533 43.9978 38.5177 43.9978 42.7301 43.9978C44.9419 43.9978 46.18 42.8991 46.4093 40.7339C46.4597 40.2613 46.5942 40.1389 47.0673 40.1389H47.0853C48.4675 40.1485 49.8292 40.1509 50.9783 40.1509C51.4418 40.1509 51.9041 40.1509 52.3676 40.1509C52.8311 40.1509 53.2934 40.1509 53.757 40.1509C54.6467 40.1509 55.8175 40.1509 56.9967 40.1581H57.0255C58.5253 40.1581 59.4967 39.5104 59.9927 38.1789L59.9999 38.1585V32.7654L59.9975 32.7522H59.9987ZM44.5217 28.6534C44.0978 27.8821 43.7039 27.1948 43.1852 26.583C43.0543 26.4283 42.9954 26.3084 43.0123 26.2268C43.0291 26.1428 43.1311 26.0577 43.3413 25.9509C44.9707 25.1292 46.5906 24.7118 48.1553 24.7118C49.8856 24.7118 51.5847 25.2216 53.207 26.2268C56.203 28.0837 57.7316 30.8462 57.7472 34.4352C57.752 35.4224 57.752 36.298 57.7472 37.1113C57.7436 37.7267 57.6175 37.8526 57.0015 37.855C56.3699 37.8574 55.6842 37.8586 54.8413 37.8586C54.3561 37.8586 53.8722 37.8586 53.3871 37.8586C52.902 37.8586 52.4181 37.8586 51.9329 37.8586H51.8549C51.4118 37.8586 50.9699 37.8574 50.5268 37.8562C50.0837 37.855 49.6406 37.8538 49.1987 37.8538C48.351 37.8538 47.6641 37.8598 47.0373 37.8718C47.0229 37.8718 47.0097 37.8718 46.9965 37.8718C46.7815 37.8718 46.6459 37.8358 46.5714 37.7603C46.4922 37.6799 46.4585 37.5348 46.4633 37.2925C46.5198 33.953 45.8858 31.1281 44.5241 28.6546L44.5217 28.6534ZM39.3522 41.7031H35.4244H32.7167H30.0089H29.5658H26.3621H23.1584C21.2455 41.7031 19.3314 41.7031 17.4174 41.7031C16.8218 41.7031 16.4627 41.6096 16.255 41.4021C16.0449 41.1921 15.9524 40.8275 15.9536 40.2205C15.9536 39.7527 15.9512 39.2789 15.9476 38.8195C15.9404 37.9054 15.9332 36.959 15.962 36.0318C16.1217 30.9565 18.4476 27.0053 22.8738 24.2871C24.9884 22.9881 27.3623 22.3307 29.9284 22.3307C30.1698 22.3307 30.4159 22.3367 30.6597 22.3487C37.4274 22.6714 42.8958 27.5127 43.9573 34.1233C44.207 35.6779 44.1638 37.2805 44.1218 38.8303C44.105 39.4732 44.087 40.1365 44.0894 40.7903C44.0918 41.3193 43.6235 41.6935 42.9498 41.7007C42.4887 41.7055 41.9844 41.7079 41.3624 41.7079C41.0274 41.7079 40.6923 41.7079 40.3585 41.7067C40.0235 41.7067 39.6885 41.7055 39.3534 41.7055L39.3522 41.7031ZM13.5988 38.0698C13.606 38.2629 13.576 38.39 13.5076 38.4608C13.4367 38.534 13.3047 38.5676 13.0909 38.5676H13.0633C12.4089 38.5592 11.6896 38.5556 10.8022 38.5556C10.3435 38.5556 9.88479 38.5556 9.42729 38.558C8.96859 38.558 8.51109 38.5604 8.05238 38.5604H7.95992C7.49642 38.5604 7.03171 38.5604 6.5682 38.5604C6.1047 38.5604 5.64119 38.5604 5.17649 38.5604C4.46562 38.5604 3.75355 38.5604 3.04268 38.558C2.68244 38.558 2.50953 38.522 2.42427 38.4344C2.34021 38.348 2.30899 38.1717 2.3174 37.8286C2.32941 37.3524 2.3222 36.8678 2.3162 36.4C2.29819 35.1261 2.28137 33.809 2.63201 32.5375C3.64067 28.8837 6.84559 26.084 10.6065 25.573C11.0748 25.5095 11.5443 25.4771 12.0018 25.4771C13.5076 25.4771 14.993 25.8285 16.4147 26.5219C16.5744 26.5998 16.6561 26.6634 16.6717 26.7222C16.6873 26.7834 16.6465 26.8841 16.5444 27.0317C14.6748 29.7474 13.6997 32.6959 13.6469 35.7966C13.6421 36.0641 13.6313 36.3376 13.6205 36.6015C13.6012 37.0825 13.5808 37.5791 13.5988 38.0698Z" fill="#444444"/>
<path id="Vector_2" d="M29.6709 18.0062H29.7346C32.129 18.0062 34.3985 17.0633 36.1252 15.3516C37.8507 13.6411 38.8018 11.3931 38.8066 9.02167C38.8102 6.63101 37.8627 4.37109 36.1372 2.65816C34.4117 0.94643 32.1326 0.00239906 29.719 0H29.6505C27.3606 0 25.0803 0.905646 23.3944 2.48663C21.598 4.17077 20.6062 6.47507 20.6025 8.97609C20.5989 11.4675 21.5656 13.767 23.3247 15.4536C25.0263 17.0837 27.279 17.9906 29.6709 18.0074V18.0062ZM29.6505 15.6803C27.2621 15.6611 25.7191 14.5887 24.8437 13.6914C23.5973 12.4139 22.9009 10.6818 22.9309 8.94011C22.9957 5.27554 26.0277 2.2947 29.6901 2.2947H29.7082C31.5202 2.2995 33.2205 3.00962 34.4969 4.29312C35.7602 5.56462 36.4518 7.24517 36.4434 9.02527C36.471 10.7502 35.7746 12.4595 34.5353 13.7178C33.6528 14.6127 32.1001 15.6803 29.7118 15.6803H29.6493H29.6505Z" fill="#444444"/>
<path id="Vector_3" d="M11.9452 20.5829H11.9536C13.87 20.5829 15.6664 19.8572 17.0137 18.5401C18.361 17.2218 19.1043 15.4609 19.1079 13.5824C19.1139 9.69593 15.9522 6.52797 12.0617 6.52197H12.0484C10.0972 6.52197 8.26955 7.27528 6.90185 8.64154C5.57858 9.96463 4.8521 11.7099 4.8545 13.5548C4.8569 15.4165 5.60019 17.1774 6.94628 18.5113C8.29237 19.8452 10.0683 20.5817 11.9452 20.5841V20.5829ZM11.9956 8.81668C13.2576 8.81668 14.5017 9.33967 15.4119 10.2501C16.3149 11.1534 16.8108 12.3289 16.8084 13.5584C16.8036 16.1218 14.5977 18.287 11.9908 18.287H11.9836C9.30343 18.2834 7.20565 16.201 7.20685 13.5476C7.20805 10.9398 9.35627 8.81788 11.9956 8.81668Z" fill="#444444"/>
<path id="Vector_4" d="M47.9893 20.116H48.0097C49.9334 20.116 51.7369 19.3879 53.089 18.066C54.4423 16.7429 55.1892 14.9748 55.1916 13.0892C55.1976 9.28424 52.054 6.12228 48.1838 6.03831C48.137 6.03831 48.0889 6.03711 48.0421 6.03711C46.2817 6.03711 44.5094 6.74483 43.1825 7.97795C41.762 9.29863 40.9706 11.0967 40.9562 13.0412C40.943 14.9088 41.6671 16.6757 42.9964 18.0168C44.3329 19.3651 46.1064 20.1112 47.9893 20.116ZM48.0733 17.8201H48.0457C46.7813 17.8129 45.5349 17.2815 44.6259 16.3603C43.7289 15.4522 43.2401 14.2779 43.2497 13.0556C43.2714 10.461 45.4436 8.34981 48.0937 8.34981C49.3798 8.34981 50.5782 8.84401 51.4716 9.73886C52.3638 10.6325 52.8537 11.8272 52.8513 13.1047C52.8465 15.7053 50.7031 17.8201 48.0721 17.8201H48.0733Z" fill="#444444"/>
</g>
</svg>
