<svg width="48" height="34" viewBox="0 0 48 34" fill="none" xmlns="http://www.w3.org/2000/svg">
<path d="M48 33.439C47.4627 34.0835 47.137 34.1396 46.3807 33.7756C43.7626 32.5197 40.9912 31.7644 38.1191 31.3443C36.342 31.0839 34.5548 30.953 32.7573 30.9717C30.332 30.9962 27.9271 31.2235 25.5704 31.7903C24.5103 32.0464 23.5014 32.0392 22.4427 31.7874C19.8539 31.1703 17.208 30.9372 14.5505 30.9875C10.0094 31.0739 5.62748 31.9169 1.49667 33.8476C0.648313 34.2446 0.00146016 33.8015 0 32.8261C0 26.181 0 19.5374 0 12.8937C0 9.95602 0 7.01831 0 4.0806C0 3.1685 0.334378 2.82034 1.25574 2.8002C2.02087 2.78438 2.78599 2.78438 3.54966 2.8002C3.91032 2.8074 4.07386 2.68223 4.03882 2.31826C4.02275 2.15137 4.03005 1.98018 4.0432 1.81185C4.08116 1.29394 4.32063 0.971686 4.82876 0.845086C7.55489 0.160291 10.3161 -0.133192 13.1298 0.068218C15.2149 0.217837 17.2402 0.610587 19.1778 1.38889C20.8409 2.05786 22.3434 2.98579 23.6357 4.22158C23.8956 4.47047 24.0548 4.52945 24.3512 4.25036C26.6261 2.11109 29.3814 0.931404 32.4405 0.37321C35.9493 -0.266986 39.4274 -0.0483121 42.8807 0.760206C43.7188 0.955861 43.9656 1.26517 43.9787 2.16288C43.9855 2.61941 44.2153 2.84768 44.6679 2.84768C45.3863 2.84768 46.1047 2.86494 46.8216 2.84192C47.34 2.8261 47.7342 2.99298 47.9971 3.4404V33.439H48ZM5.96915 14.5626C5.96915 17.1924 5.96915 19.8208 5.96915 22.4506C5.96915 23.6807 5.97353 24.9107 5.96623 26.1408C5.96477 26.4328 6.00858 26.6098 6.38092 26.558C7.84985 26.358 9.32899 26.299 10.8125 26.2861C12.9882 26.2659 15.1448 26.4357 17.2694 26.9032C19.1807 27.3233 21.022 27.9448 22.7041 28.9634C22.9494 29.1116 23.0735 29.113 23.0487 28.785C23.0399 28.6785 23.0487 28.5692 23.0487 28.4627C23.0283 22.5283 23.0064 16.5939 22.9859 10.6595C22.9815 9.42947 22.9699 8.19943 22.9888 6.96939C22.9947 6.56657 22.8633 6.26733 22.5785 5.98968C21.0381 4.48917 19.2289 3.43752 17.1642 2.81027C13.6336 1.73848 10.0649 1.80754 6.47583 2.47795C6.0626 2.55563 5.96039 2.73402 5.96185 3.1239C5.97499 6.93774 5.96915 10.7501 5.96915 14.564V14.5626ZM41.99 14.587C41.99 10.7573 41.9856 6.92623 41.9973 3.09656C41.9973 2.72539 41.9009 2.54556 41.5096 2.47363C38.728 1.96579 35.9405 1.79171 33.1355 2.27366C30.1393 2.78869 27.4657 3.93529 25.3061 6.11196C25.0842 6.33639 24.9761 6.56082 24.9761 6.88163C24.9834 14.1425 24.982 21.4033 24.982 28.6641C24.982 29.1418 24.9863 29.1446 25.4259 28.8886C26.794 28.093 28.2644 27.5406 29.7917 27.1377C33.632 26.1264 37.5306 26.1019 41.4468 26.5335C41.9374 26.5882 41.9958 26.4328 41.9943 26.0314C41.9856 22.2161 41.9885 18.4009 41.9885 14.587H41.99ZM30.0443 29.1562C30.2006 29.1562 30.3568 29.1677 30.5116 29.1547C32.8347 28.9461 35.1535 29.008 37.4634 29.2971C40.2451 29.6439 42.9464 30.3171 45.5615 31.3199C46.0872 31.5213 46.093 31.5127 46.093 30.9444C46.0974 22.4089 46.0974 13.872 46.112 5.33653C46.112 4.90782 46.0098 4.70065 45.5411 4.75532C45.3104 4.78265 45.0738 4.7582 44.8387 4.75964C43.8969 4.76683 43.9962 4.66756 43.9962 5.60987C43.9948 12.8693 43.9962 20.1287 43.9948 27.3881C43.9948 28.3577 43.5553 28.7231 42.5872 28.5965C41.0263 28.3922 39.458 28.2455 37.8825 28.2066C36.415 28.1707 34.949 28.1995 33.4918 28.3951C32.3193 28.5534 31.1585 28.7648 30.0429 29.1547L30.0443 29.1562ZM17.9965 29.159C16.237 28.5821 14.4191 28.3102 12.5822 28.2254C10.1627 28.1117 7.75055 28.2786 5.35296 28.6325C4.64478 28.7375 4.16877 28.3937 4.06948 27.6902C4.03882 27.4787 4.04758 27.26 4.04758 27.0457C4.04758 19.9244 4.04758 12.8031 4.04758 5.68181C4.04758 5.5437 4.0359 5.40415 4.04904 5.26604C4.087 4.89774 3.95267 4.72367 3.55112 4.75388C3.19484 4.78121 2.83126 4.78553 2.47498 4.75388C2.02525 4.71216 1.92888 4.90062 1.92888 5.31064C1.9391 13.8619 1.93618 22.4147 1.93764 30.966C1.93764 31.5098 1.94494 31.517 2.4487 31.3271C4.65501 30.4941 6.91826 29.8697 9.2516 29.4957C11.2564 29.1749 13.27 28.9979 15.304 29.0626C16.202 29.0914 17.1015 29.0626 17.998 29.1605L17.9965 29.159Z" fill="#E070B0"/>
</svg>
