<svg width="36" height="32" viewBox="0 0 36 32" fill="none" xmlns="http://www.w3.org/2000/svg">
<path id="Vector" d="M17.9722 5.31315C17.9722 4.00892 17.9802 2.70367 17.9682 1.39945C17.9632 0.819112 18.1522 0.361813 18.6813 0.121886C19.2154 -0.120093 19.7015 0.00909894 20.1286 0.41308C22.1799 2.35814 24.2323 4.30217 26.2857 6.24517C29.3562 9.15097 32.4267 12.0578 35.5003 14.9595C36.1604 15.5829 36.1684 16.4113 35.5133 17.0296C32.3497 20.0205 29.1882 23.0145 26.0256 26.0064C24.0643 27.8623 22.1009 29.7171 20.1416 31.576C19.7165 31.98 19.2354 32.1215 18.6973 31.8857C18.1482 31.6457 17.9652 31.1751 17.9672 30.5815C17.9762 27.9597 17.9712 25.3369 17.9712 22.7151C17.9712 22.2219 17.9692 22.2147 17.4961 22.2291C14.7537 22.3101 12.0532 22.6402 9.46374 23.642C6.77327 24.6817 4.80993 26.5611 3.44969 29.1306C3.07463 29.8381 2.72857 30.562 2.3525 31.2695C1.86742 32.1789 0.679214 32.2456 0.179127 31.4007C0.0671077 31.211 0.00709729 31.0059 0.00509694 30.7824C-0.0239081 27.8387 0.057106 24.9021 0.610202 22.0015C1.09529 19.4586 1.95544 17.0819 3.62473 15.0753C5.203 13.1785 7.22135 11.9819 9.48974 11.1842C11.3991 10.5136 13.3734 10.166 15.3798 9.98661C16.1369 9.91894 16.895 9.84512 17.6552 9.84409C17.9412 9.84409 17.9752 9.69337 17.9742 9.45652C17.9682 8.07539 17.9712 6.69427 17.9722 5.31212V5.31315ZM2.60555 25.7983C3.07163 25.1933 3.4947 24.6919 3.96178 24.2316C5.72109 22.4957 7.83446 21.416 10.1609 20.7413C13.0634 19.8995 16.0359 19.6391 19.0394 19.6576C19.9516 19.6637 20.4186 20.1364 20.4196 21.0725C20.4216 23.157 20.4196 25.2405 20.4226 27.325C20.4226 27.4593 20.3796 27.6039 20.4656 27.7269C20.5797 27.7474 20.6267 27.6582 20.6867 27.6008C24.6454 23.8553 28.6031 20.1077 32.5597 16.3601C32.9348 16.0043 32.9348 15.9961 32.5567 15.6372C28.8841 12.1572 25.2105 8.67931 21.5368 5.20138C21.1938 4.87738 20.8457 4.5585 20.4196 4.16272C20.4196 4.4088 20.4196 4.54415 20.4196 4.68052C20.4196 6.80296 20.4226 8.92539 20.4176 11.0478C20.4156 11.8066 19.9366 12.308 19.2244 12.3439C17.8802 12.4105 16.535 12.4126 15.1937 12.5551C13.3264 12.754 11.4961 13.0975 9.73378 13.7814C6.61724 14.9902 4.52688 17.1988 3.51371 20.4655C2.98561 22.1676 2.75057 23.9209 2.60655 25.7983H2.60555Z" fill="white"/>
</svg>
