<svg width="38" height="38" viewBox="0 0 38 38" fill="none" xmlns="http://www.w3.org/2000/svg">
<path id="Vector" d="M37.999 14.6611C36.9697 15.4933 35.9365 16.3205 34.9132 17.1587C31.2954 20.1225 27.6815 23.0913 24.0657 26.0581C22.8987 27.0156 21.7337 27.976 20.5648 28.9315C20.4459 29.0289 20.326 29.2288 20.1735 29.1512C20.0249 29.0757 20.1081 28.8569 20.1081 28.7028C20.1041 26.0611 20.1051 23.4194 20.1051 20.7777C20.1051 20.2448 20.0922 20.2239 19.5672 20.2716C15.8216 20.6127 12.39 21.8266 9.31905 24.0209C6.57994 25.9786 4.40846 28.4473 2.95024 31.4877C1.9814 33.508 1.16511 35.6009 0.2775 37.661C0.225987 37.7793 0.214099 37.9274 0.0694662 38C-0.0365321 37.8797 0.0120092 37.7385 0.0120092 37.6113C0.00903729 35.069 -0.0157287 32.5267 0.0159718 29.9844C0.0793726 24.8631 1.78822 20.3422 5.09894 16.4587C8.34625 12.6498 12.4554 10.2845 17.362 9.32302C18.1377 9.17091 18.9223 9.07248 19.7099 9.0168C20.0387 8.99393 20.113 8.86368 20.1121 8.55547C20.1012 5.87698 20.1061 3.19749 20.1071 0.518995C20.1071 0.345997 20.121 0.172998 20.1289 0C20.1537 0 20.1784 0 20.2032 0C25.0969 3.99885 29.9897 7.99869 34.8844 11.9956C35.9187 12.8397 36.9608 13.6738 38 14.512V14.6611H37.999Z" fill="#E070B0"/>
</svg>
