<svg width="117" height="117" viewBox="0 0 117 117" fill="none" xmlns="http://www.w3.org/2000/svg">
<path d="M58.3373 116.993C43.0811 116.993 27.8281 116.993 12.572 116.993C5.00942 116.99 0.0113971 111.975 0.00203746 104.387C0.00203746 101.856 0.00203746 99.3243 0.00203746 96.7962C0.00203746 94.5489 0.544894 93.9122 2.75688 93.7874C6.21369 93.5938 9.08085 92.1799 11.3115 89.5893C14.5812 85.7877 15.2519 81.3993 13.4362 76.8143C11.583 72.1387 7.91402 69.5981 2.90663 69.1174C0.491857 68.8833 0.00515733 68.4588 0.00203746 66.0462C0.00203746 63.2808 -0.00420227 60.5185 0.00515733 57.7531C0.0145169 55.0065 0.906798 52.5626 2.61024 50.4183C2.98463 49.9501 3.27166 49.5007 3.28102 48.8608C3.32157 46.1985 4.24817 43.8451 5.87362 41.7539C7.56771 39.5722 9.26492 37.3904 10.9652 35.2118C12.1851 33.645 13.0649 33.5077 14.7309 34.6188C19.2953 37.6651 24.7083 37.6433 29.0573 34.5658C35.5061 29.9994 35.9834 20.33 30.012 15.18C28.424 13.8098 28.3148 12.9452 29.5784 11.316C31.3411 9.03749 33.0913 6.74965 34.904 4.51488C39.0534 -0.594524 46.1324 -1.49967 51.4018 2.5017C57.1049 6.8308 62.7145 11.2848 68.3614 15.6888C81.1903 25.6922 94.0192 35.6956 106.845 45.6991C107.251 46.0143 107.687 46.2203 108.186 46.367C113.534 47.9432 116.888 52.419 116.91 57.9872C116.922 60.8306 116.919 63.6709 116.91 66.5143C116.903 68.2809 116.214 68.9926 114.476 69.0893C108.274 69.4326 103.201 74.1363 102.633 79.8418C101.841 87.8477 107.481 92.6918 112.426 93.5876C113.341 93.753 114.28 93.7998 115.2 93.9403C116.223 94.0963 116.872 94.7643 116.869 95.7537C116.86 99.5647 117.275 103.401 116.679 107.177C115.774 112.905 110.87 116.981 105.039 116.987C89.4735 117.009 73.9054 116.993 58.3404 116.997L58.3373 116.993ZM69.7123 112.93C81.3463 112.93 92.9834 112.833 104.617 112.976C109.185 113.033 113.153 109.343 112.869 104.671C112.757 102.848 112.804 101.01 112.869 99.1839C112.907 98.132 112.551 97.7263 111.49 97.4891C104.28 95.8785 98.9236 89.5956 98.5336 82.7664C98.0438 74.2299 103.488 67.9033 109.856 65.8277C110.829 65.5093 112.227 65.7403 112.688 64.807C113.11 63.9518 112.854 62.7502 112.848 61.7046C112.838 59.9161 112.975 58.0996 112.723 56.3423C112.18 52.5938 108.826 49.9439 104.817 49.9408C88.3941 49.9283 71.9742 49.9345 55.5512 49.9345C48.3537 49.9345 41.1531 49.9564 33.9555 49.9127C32.8698 49.9064 32.5235 50.2498 32.5703 51.3141C32.6452 52.9465 32.589 54.582 32.589 56.2175C32.589 56.489 32.5984 56.7637 32.5797 57.0353C32.4892 58.3805 31.6344 59.2825 30.4956 59.2451C29.3912 59.2076 28.5675 58.3399 28.5394 57.0353C28.4926 55.0127 28.502 52.9871 28.527 50.9614C28.5363 50.2186 28.268 49.922 27.5068 49.9252C22.1749 49.947 16.8431 49.869 11.5143 49.9657C7.42108 50.0407 4.18266 53.4178 4.08906 57.5097C4.04538 59.4948 4.1421 61.483 4.04538 63.4649C3.98611 64.6822 4.30745 65.2315 5.6022 65.4875C9.06837 66.1679 12.0104 67.9189 14.2941 70.6031C22.6055 80.3818 17.7322 94.7892 5.19349 97.5453C4.30745 97.7388 4.0485 98.1289 4.06098 98.9592C4.09842 101.178 4.03602 103.398 4.09842 105.617C4.2045 109.496 7.50531 112.842 11.3833 112.895C16.712 112.967 22.0439 112.908 27.3757 112.936C28.2337 112.939 28.5519 112.633 28.5301 111.775C28.4864 110.064 28.5051 108.348 28.5238 106.637C28.5426 105.133 29.2757 104.268 30.5018 104.243C31.7747 104.215 32.5516 105.092 32.5797 106.665C32.6077 108.223 32.5859 109.78 32.589 111.338C32.5922 112.923 32.5953 112.93 34.227 112.93C46.0575 112.93 57.8849 112.93 69.7154 112.93H69.7123ZM100.237 45.6585C99.7535 45.2683 99.3136 44.9063 98.8675 44.5567C94.4185 41.0859 89.9665 37.6183 85.5144 34.1475C79.0969 29.1474 72.6731 24.1597 66.2805 19.1314C65.5067 18.5228 65.1074 18.6008 64.5614 19.3718C63.666 20.6421 62.6677 21.8438 61.7067 23.0673C61.4415 23.4044 61.1826 23.7477 60.8862 24.0536C60.0532 24.9088 59.0049 25.0274 58.1626 24.3875C57.3046 23.7352 57.1081 22.5367 57.8163 21.5722C59.0361 19.9117 60.3153 18.2887 61.6007 16.6751C61.9844 16.1913 62.0624 15.8604 61.5102 15.4328C57.2297 12.1275 53.0335 8.70352 48.6719 5.50742C45.187 2.95428 40.6414 3.75642 37.9334 7.14604C36.7447 8.63486 35.6527 10.2111 34.3954 11.6406C33.6155 12.527 33.6747 13.0857 34.4204 13.9846C40.8036 21.6659 39.0846 32.9552 30.6516 38.3112C25.4882 41.5885 20.0316 41.7539 14.5188 39.1414C13.7014 38.7544 13.2271 38.7669 12.6812 39.5253C11.6579 40.9455 10.5378 42.2938 9.47395 43.689C9.02781 44.2758 8.60663 44.8876 8.2104 45.5087C8.05441 45.7552 7.81106 46.0674 8.02945 46.3608C8.23536 46.6354 8.53799 46.4013 8.78758 46.3389C10.307 45.9519 11.8513 45.8582 13.4143 45.8614C21.4698 45.877 29.5253 45.8614 37.5808 45.877C38.3077 45.877 38.9036 45.7709 39.4621 45.1997C40.2701 44.3788 41.4682 44.3351 42.1701 45.1466C42.7816 45.8551 43.468 45.8707 44.2542 45.8707C62.468 45.8645 80.6818 45.8707 98.8955 45.8614C99.3042 45.8614 99.7379 45.9893 100.24 45.6585H100.237Z" fill="#E070B0"/>
</svg>
