<svg width="23" height="23" viewBox="0 0 23 23" fill="none" xmlns="http://www.w3.org/2000/svg">
<path id="Vector" d="M22.9995 4.90059C22.9944 5.80857 22.6505 6.56994 22.0126 7.20744C19.1052 10.1134 16.1978 13.0193 13.2904 15.9252C11.9156 17.2993 10.5393 18.6724 9.16753 20.0491C9.00517 20.2118 8.82358 20.3231 8.60608 20.3954C6.07449 21.2356 3.54442 22.0789 1.01434 22.9231C0.845909 22.9793 0.67798 23.0258 0.499934 22.9838C0.0841559 22.8857 -0.0999598 22.5071 0.0538072 22.0394C0.439236 20.8676 0.830735 19.6977 1.22021 18.5273C1.67746 17.1532 2.13775 15.7796 2.59096 14.404C2.66785 14.1705 2.78823 13.9783 2.96273 13.8044C7.21965 9.55474 11.4756 5.30453 15.7249 1.04826C16.3688 0.403172 17.1235 0.0194559 18.0344 0.000750336C18.9064 -0.0169441 19.6793 0.2783 20.3111 0.888C20.9246 1.4795 21.5311 2.07909 22.1214 2.69384C22.7086 3.30557 23.0025 4.04671 23 4.90059H22.9995ZM15.1847 3.51183C15.1032 3.53054 15.0577 3.60031 15.0026 3.65541C11.47 7.1852 7.93892 10.716 4.40278 14.2428C4.26166 14.3833 4.26166 14.4612 4.40278 14.6012C5.74318 15.9303 7.07853 17.265 8.4078 18.6047C8.55044 18.7483 8.62733 18.7412 8.76541 18.6011C9.81295 17.5425 10.8691 16.4925 11.9227 15.4394C14.4012 12.9622 16.8797 10.4845 19.3591 8.00824C19.4664 7.90107 19.563 7.82422 19.4016 7.66447C18.044 6.31868 16.6945 4.9648 15.342 3.61446C15.298 3.57048 15.2585 3.51588 15.1842 3.51133L15.1847 3.51183ZM18.0779 1.33693C17.7001 1.32227 17.344 1.44108 17.0253 1.67363C16.7274 1.89102 16.4957 2.17818 16.2297 2.42893C16.1351 2.51791 16.1907 2.58009 16.2575 2.64683C17.6262 4.01385 18.9955 5.38037 20.3607 6.75093C20.4709 6.86164 20.5387 6.83889 20.6313 6.73829C20.8032 6.55073 20.9879 6.37429 21.1593 6.18622C21.8685 5.40918 21.8629 4.33488 21.1335 3.58312C20.568 3.00021 19.9884 2.43146 19.4112 1.86018C19.0486 1.50124 18.611 1.32126 18.0779 1.33643V1.33693ZM1.73412 21.2432C1.8196 21.2781 1.88991 21.228 1.96224 21.2037C3.67694 20.634 5.39114 20.0637 7.10534 19.4924C7.35167 19.4105 7.35167 19.4075 7.15744 19.2134C6.02543 18.0814 4.89089 16.9525 3.76394 15.816C3.61169 15.6624 3.56718 15.6806 3.50092 15.8792C2.92986 17.6007 2.3502 19.319 1.77559 21.0389C1.75384 21.1031 1.70984 21.1663 1.73361 21.2437L1.73412 21.2432Z" fill="#E070B0"/>
</svg>
