<svg width="64" height="45" viewBox="0 0 64 45" fill="none" xmlns="http://www.w3.org/2000/svg">
<path id="Vector" d="M62.3773 19.1442C62.3468 19.1442 62.318 19.1442 62.2875 19.1459C61.7196 19.1612 61.0993 19.168 60.3314 19.168C59.9348 19.168 59.5365 19.1663 59.1381 19.1646C58.7415 19.1629 58.3449 19.1612 57.9483 19.1612C57.6364 19.1612 57.3245 19.1612 57.0143 19.1646H56.9889C56.2888 19.1646 55.9041 18.7748 55.9041 18.065C55.9041 17.7297 55.877 17.391 55.8481 17.0335C55.8295 16.7986 55.8109 16.5552 55.799 16.3118C55.6634 13.3347 55.2159 10.2402 54.4684 7.10992C54.1633 5.8299 53.5379 5.66479 53.0277 5.66479C52.7785 5.66479 52.4903 5.71415 52.1734 5.81117C48.3664 6.97375 44.9866 8.40356 41.8389 10.184C41.5576 10.344 41.3355 10.4155 41.1186 10.4155C40.5643 10.4155 40.2812 9.94572 40.1456 9.71933C38.1777 6.42906 35.8793 3.39751 33.3114 0.709801C32.8605 0.238302 32.4283 0 32.0265 0C31.6248 0 31.2011 0.234898 30.757 0.697886C28.1992 3.37028 25.9093 6.3814 23.9515 9.64954C23.8193 9.86912 23.5108 10.3866 22.9159 10.3866C22.6837 10.3866 22.443 10.3083 22.1362 10.1364C18.9547 8.3508 15.4545 6.88183 11.7323 5.77032C11.4899 5.69713 11.2593 5.65968 11.0492 5.65968C10.322 5.65968 9.84402 6.09714 9.62706 6.96013C8.77447 10.3593 8.29309 13.9662 8.1541 17.985C8.12867 18.7816 7.74391 19.168 6.98115 19.168H6.94556C6.11162 19.1561 5.23021 19.151 4.25219 19.151C3.43859 19.151 2.57075 19.1544 1.43679 19.1629C0.596069 19.168 0.0367177 19.7297 0.00959762 20.5944C-0.0412525 22.1502 0.109603 23.7417 0.470639 25.4626C1.72664 31.4474 4.82341 36.3547 9.67621 40.0467C13.9137 43.2723 18.7258 44.9319 23.9821 44.9796C24.5601 44.9847 25.194 44.9864 25.9178 44.9864C26.3924 44.9864 26.867 44.9847 27.3433 44.9847C27.8179 44.983 28.2925 44.983 28.7687 44.983H29.2417C29.3722 44.983 29.484 44.983 29.584 44.9864H34.4657C34.5657 44.983 34.6775 44.983 34.8064 44.983C35.1318 44.983 35.4572 44.983 35.781 44.9864C36.0725 44.9881 36.3658 44.9898 36.659 44.9915C37.2116 44.9949 37.7828 45 38.3438 45C38.9049 45 39.4388 44.9949 39.9083 44.9864C40.127 44.983 40.3439 44.9779 40.5609 44.9711C46.0103 44.8043 50.9174 42.9421 55.1447 39.439C60.1958 35.2517 63.1485 29.8116 63.9248 23.2702C63.9384 23.1528 63.9689 23.0506 63.9943 22.9672C63.996 22.9621 63.9977 22.957 63.9994 22.9519V20.0855C63.6587 19.4268 63.1672 19.1442 62.3773 19.1442ZM43.0475 12.8751C45.4442 11.5492 48.0003 10.3968 50.8597 9.35507C51.0191 9.2972 51.1513 9.26996 51.2784 9.26996C51.5208 9.26996 51.9462 9.37379 52.0785 10.0649C52.431 11.956 52.6615 13.6837 52.7802 15.3501C52.7971 15.5731 52.8243 15.8063 52.8514 16.0309C52.9073 16.5041 52.9666 16.9927 52.9226 17.4471C52.9327 18.8974 52.8005 19.2004 51.3547 19.3893C49.558 19.6242 47.7816 20.1025 45.9256 20.8481C45.729 20.9281 45.5188 21.0012 45.3086 21.0012C44.8408 21.0012 44.5459 20.6898 44.4289 20.077C44.0933 18.2965 43.4814 16.419 42.5576 14.3356C42.2762 13.7041 42.4407 13.2122 43.0475 12.8751ZM11.1288 17.7297C11.1271 17.5969 11.1271 17.4522 11.1271 17.2871V17.2582C11.2661 14.8088 11.5424 12.419 11.9526 10.1551C12.0577 9.57295 12.3408 9.27847 12.7967 9.27847C12.9425 9.27847 13.0984 9.31081 13.29 9.38231C16.1172 10.424 18.6157 11.5492 20.9277 12.8224C21.6124 13.1985 21.7802 13.7092 21.4565 14.4258C20.6056 16.3271 19.9768 18.2625 19.5869 20.174C19.4733 20.734 19.1971 21.02 18.7648 21.02C18.6208 21.02 18.4631 20.9825 18.2699 20.9042C16.2562 20.0685 14.1425 19.5255 11.9848 19.2889C11.4305 19.231 11.117 18.8804 11.1271 18.3272C11.1305 18.1433 11.1288 17.9612 11.1288 17.7297ZM30.2265 41.7506C29.9434 42.0927 29.5078 42.0927 28.7891 42.0927H28.7179C28.2891 42.0927 27.8585 42.0961 27.4297 42.0995C26.9975 42.1012 26.5652 42.1046 26.133 42.1046C25.0109 42.1046 23.6837 42.0859 22.3413 41.9531C18.1851 41.5361 14.4426 40.0416 11.2204 37.5088C6.80826 34.0415 4.10981 29.4797 3.20299 23.9477C3.16739 23.7332 3.13349 23.5579 3.10298 23.4047C3.01315 22.9451 2.94874 22.6149 3.17926 22.3323C3.41147 22.0498 3.76912 22.0498 4.11659 22.0498H4.28948C4.36068 22.0515 4.43865 22.0515 4.5217 22.0515C4.59628 22.0515 4.67425 22.0515 4.759 22.0498C5.00478 22.0464 5.25055 22.0447 5.51497 22.0447C5.70651 22.0447 5.90822 22.0464 6.12687 22.0464C6.38112 22.0481 6.65741 22.0481 6.9659 22.0481C7.31507 22.043 7.62695 22.0413 7.92019 22.0413C10.3593 22.0413 13.2289 22.1808 16.0308 23.2243C23.9549 26.1724 28.7586 31.9155 30.3078 40.2901C30.4315 40.9625 30.5129 41.405 30.2265 41.7506ZM32.4384 33.9121C32.4215 33.9309 32.3978 33.953 32.3672 33.987L31.8587 34.5453L31.5333 33.8611C30.8197 32.3581 30.2519 31.3061 29.6349 30.3478C27.8517 27.5767 25.5957 25.2447 22.9278 23.4166C22.5176 23.1375 22.1531 22.7732 22.2616 22.0055C22.6413 19.3127 23.5736 16.5995 25.1991 13.4641C26.7805 10.4189 28.7654 7.50653 31.2689 4.56349C31.2841 4.54477 31.2994 4.52604 31.3163 4.50732C31.4452 4.34732 31.6621 4.08008 32.0265 4.08008C32.391 4.08008 32.6401 4.36774 32.7198 4.46306C36.9438 9.51848 39.6015 14.082 41.0813 18.8276C41.4338 19.9544 41.6779 21.071 41.8033 22.1468C41.8406 22.4719 41.8322 22.9434 41.3287 23.2787C37.5285 25.8337 34.5928 29.3367 32.6029 33.6874C32.5554 33.7947 32.4876 33.8628 32.4384 33.9121ZM60.962 23.1596V23.1681C59.8263 32.2457 53.07 39.6416 44.1492 41.5718C42.0322 42.0297 39.8897 42.0927 37.8879 42.0927C37.6489 42.0927 37.4099 42.0927 37.1692 42.091H37.1641C36.92 42.091 36.6743 42.091 36.4285 42.0893H35.6878C35.2555 42.0893 34.903 42.091 34.5809 42.0944H34.5589C34.3538 42.0944 34.0555 42.0672 33.8402 41.8238C33.6232 41.5787 33.6266 41.2689 33.6554 41.0255C34.7284 31.604 41.9593 23.9494 51.236 22.4106C53.0548 22.1077 54.8583 22.0464 57.0075 22.0464C57.372 22.0464 57.7364 22.0481 58.1008 22.0498C58.4635 22.0515 58.8263 22.0532 59.1907 22.0532C59.4941 22.0532 59.7975 22.0515 60.1009 22.0481H60.1196C60.4179 22.0481 60.6484 22.1366 60.8026 22.3136C61.0366 22.5809 60.9942 22.9145 60.962 23.1596Z" fill="#444444"/>
</svg>
