<svg width="47" height="33" viewBox="0 0 47 33" fill="none" xmlns="http://www.w3.org/2000/svg">
<g id="Layer_1" clip-path="url(#clip0_585_14)">
<path id="Vector" d="M-0.000478771 3.32579C0.381864 1.98374 1.12204 0.933812 2.43328 0.349568C2.92714 0.130783 3.43938 0 3.98471 0C16.9746 0.00122227 29.9657 -0.00244454 42.9555 0.00488907C45.1491 0.00488907 46.9897 1.84562 46.9909 4.03837C46.9995 12.3461 46.9995 20.6539 46.9909 28.9604C46.9885 31.1532 45.1503 32.9939 42.9555 32.9951C29.9804 33.0024 17.0052 33.0012 4.03005 32.9963C2.2801 32.9963 0.73112 31.8401 0.158831 30.1497C0.104911 29.9908 0.0509905 29.8331 -0.00292969 29.6742C-0.000478771 20.8922 -0.000478771 12.109 -0.000478771 3.32579ZM4.91238 2.83077C5.07292 3.00189 5.16238 3.10334 5.25796 3.1999C10.9 8.85044 16.542 14.501 22.1864 20.1503C23.0504 21.0144 23.9156 21.0169 24.7758 20.154C26.7488 18.1763 28.7157 16.1914 30.6911 14.215C34.3491 10.5531 38.012 6.89603 41.67 3.23412C41.7815 3.12289 41.9457 3.04222 41.969 2.83077H4.91238ZM4.93322 30.1533H42.0205C41.9445 30.058 41.9114 30.0067 41.8698 29.9651C38.1468 26.2421 34.4214 22.5215 30.7034 18.7924C30.4583 18.5455 30.321 18.6176 30.1152 18.8254C28.9669 19.9865 27.8113 21.1403 26.6532 22.2905C24.8212 24.1092 22.1374 24.1056 20.3041 22.2819C19.2 21.1843 18.1032 20.0794 16.9991 18.9818C16.5064 18.4929 16.6094 18.4526 16.0959 18.9659C12.4906 22.5692 8.88532 26.1724 5.28125 29.7769C5.17586 29.882 5.07782 29.9957 4.93199 30.1521L4.93322 30.1533ZM2.8144 28.1048C3.0166 28.0474 3.10116 27.9117 3.20655 27.8066C6.84493 24.1728 10.476 20.5329 14.1266 16.9113C14.4673 16.5739 14.4354 16.4016 14.1156 16.0838C10.4784 12.4708 6.85719 8.84188 3.22983 5.21908C3.11586 5.10541 3.02885 4.95018 2.8144 4.90985V28.106V28.1048ZM44.1675 4.91229C43.9922 4.92329 43.9322 5.02107 43.8599 5.09319C40.1578 8.79177 36.4594 12.494 32.7499 16.1853C32.4717 16.4627 32.5526 16.6131 32.7842 16.8441C36.4581 20.506 40.1247 24.1752 43.7974 27.8396C43.8942 27.9361 43.9616 28.1048 44.1675 28.0669V4.91229Z" fill="#E070B0"/>
</g>
<defs>
<clipPath id="clip0_585_14">
<rect width="47" height="33" fill="white"/>
</clipPath>
</defs>
</svg>
