<svg width="45" height="45" viewBox="0 0 45 45" fill="none" xmlns="http://www.w3.org/2000/svg">
<g id="Camada_1" clip-path="url(#clip0_410_88)">
<path id="Vector" d="M9.14854 32.4983C7.6681 32.8986 6.69647 32.169 5.75882 31.1222C4.59626 29.8232 3.30475 28.6383 2.07422 27.3993C-0.691739 24.6142 -0.691739 20.3859 2.07622 17.6007C3.64762 16.0205 5.23002 14.4512 6.79543 12.865C7.05833 12.5988 7.31124 12.4697 7.70509 12.4897C8.56776 12.5328 9.43344 12.5137 10.2971 12.5017C11.7036 12.4827 12.8821 12.9791 13.8728 13.9809C16.0379 16.1676 18.2141 18.3423 20.3953 20.512C21.6198 21.7299 23.2642 21.9201 24.5687 21.0083C24.7846 20.8572 24.9786 20.6691 25.1655 20.4819C27.2597 18.3893 29.3659 16.3087 31.4371 14.194C32.5627 13.0452 33.8822 12.4557 35.4916 12.5087C36.0894 12.5287 36.6901 12.5368 37.2859 12.5027C37.6918 12.4797 37.9687 12.6278 38.2446 12.908C39.798 14.4833 41.3694 16.0395 42.9288 17.6087C45.6927 20.3909 45.6867 24.6202 42.9158 27.4073C41.3564 28.9755 39.784 30.5318 38.2326 32.108C37.9527 32.3922 37.6658 32.5123 37.2679 32.4983C36.4382 32.4693 35.6026 32.5313 34.7759 32.4723C33.5363 32.3832 32.4847 31.8538 31.6041 30.9671C29.4599 28.8074 27.3057 26.6577 25.1535 24.5051C23.765 23.116 21.7908 23.103 20.3933 24.4921C18.3051 26.5667 16.2019 28.6273 14.1617 30.7489C12.9741 31.9839 11.6036 32.6114 9.89526 32.5003C9.64736 32.4843 9.39645 32.4983 9.14754 32.4983H9.14854Z" fill="white"/>
<path id="Vector_2" d="M22.1576 -7.41978e-06C24.4047 -7.41978e-06 26.0141 0.671515 27.3506 2.00855C30.0536 4.71466 32.7576 7.41976 35.4566 10.1299C35.5755 10.249 35.8234 10.35 35.7295 10.5512C35.6575 10.7053 35.4266 10.6283 35.2666 10.6263C33.2784 10.6062 31.615 11.3458 30.2206 12.7479C28.1223 14.8595 26.0151 16.9622 23.9109 19.0668C23.0812 19.8965 22.4495 19.8955 21.6098 19.0568C19.5626 17.0112 17.4874 14.9937 15.4841 12.905C13.9607 11.3168 12.1694 10.5122 9.9692 10.6152C9.73429 10.6263 9.37543 10.7504 9.28146 10.5212C9.1875 10.293 9.53536 10.1369 9.7023 9.96774C12.3413 7.31568 14.9883 4.67062 17.6313 2.02156C18.9808 0.672516 20.6032 -0.00701287 22.1576 -7.41978e-06Z" fill="white"/>
<path id="Vector_3" d="M22.4496 45C20.6123 45.008 18.9989 44.3415 17.6624 43.0055C14.9464 40.2893 12.2325 37.5722 9.52149 34.8511C9.41254 34.742 9.18862 34.646 9.27059 34.4668C9.34756 34.2977 9.57248 34.3747 9.72742 34.3827C11.3868 34.4718 12.9382 34.1576 14.2997 33.1528C14.6056 32.9266 14.8895 32.6664 15.1594 32.3972C17.3016 30.2605 19.4377 28.1169 21.5779 25.9772C22.4476 25.1075 23.0874 25.1095 23.959 25.9812C26.0163 28.0388 28.0825 30.0874 30.1247 32.161C31.5632 33.6222 33.2665 34.4118 35.3317 34.3757C35.4717 34.3737 35.6706 34.3027 35.7406 34.4608C35.8126 34.6249 35.6186 34.713 35.5197 34.8111C32.7607 37.5782 30.0068 40.3494 27.2328 43.1015C25.9313 44.3925 24.3369 45.005 22.4506 45H22.4496Z" fill="white"/>
</g>
<defs>
<clipPath id="clip0_410_88">
<rect width="45" height="45" fill="white"/>
</clipPath>
</defs>
</svg>
