<svg width="52" height="49" viewBox="0 0 52 49" fill="none" xmlns="http://www.w3.org/2000/svg">
<g id="Group 7">
<path id="Vector" d="M24.8092 48.7486C18.2544 48.7486 11.6996 48.753 5.1433 48.7472C2.45937 48.7442 0.50474 47.1 0.0574186 44.4799C0.00870045 44.1929 0.00279523 43.8956 0.00279523 43.6026C-0.000157388 34.4426 -0.00163369 25.2811 0.00279523 16.1196C0.00279523 13.1286 2.1213 11.0192 5.10934 11.0104C5.64377 11.0089 6.18114 10.9721 6.70966 11.0207C7.27656 11.0737 7.55115 10.8735 7.76079 10.3304C8.77501 7.71174 9.84534 5.11373 10.8861 2.50541C11.4265 1.15267 12.3831 0.313653 13.8299 0.0472276C14.5872 -0.092609 15.2944 0.0958023 15.9809 0.379891C24.0356 3.72272 32.0918 7.05966 40.1362 10.426C41.0884 10.8249 42.0244 11.084 43.0667 11.0237C43.8535 10.978 44.6537 10.9309 45.4376 11.0663C47.9857 11.5079 49.6274 13.4671 49.654 16.0946C49.6702 17.6917 49.6717 19.2887 49.6495 20.8858C49.6436 21.351 49.744 21.6071 50.2489 21.7513C51.2971 22.0501 51.9821 22.9598 51.9865 24.052C52.0042 27.9262 52.0042 31.799 51.988 35.6732C51.9836 36.8007 51.2705 37.7163 50.1648 38.0283C49.7543 38.1446 49.6495 38.3448 49.6525 38.7275C49.6643 40.3069 49.6599 41.8849 49.6569 43.4643C49.6495 46.6555 47.5561 48.7486 44.3644 48.7501C37.8465 48.753 31.3271 48.7501 24.8092 48.7501V48.7486ZM24.8166 13.4907C18.2987 13.4907 11.7793 13.4907 5.2614 13.4907C3.43964 13.4907 2.49185 14.4283 2.49037 16.2285C2.49037 25.3356 2.49037 34.4411 2.49037 43.5482C2.49037 45.2969 3.46916 46.2669 5.23483 46.2669C18.2898 46.2669 31.3463 46.2669 44.4013 46.2669C46.1758 46.2669 47.1649 45.2836 47.1752 43.4996C47.1841 41.9393 47.1575 40.3776 47.1885 38.8188C47.1989 38.3095 47.0394 38.1578 46.5316 38.1623C43.9908 38.1843 41.4486 38.1829 38.9079 38.1667C37.7682 38.1593 36.63 38.2197 35.4888 38.0813C31.5899 37.6103 28.3892 34.1247 28.2947 30.2092C28.1781 25.3709 31.8748 21.5924 36.7392 21.5865C39.9797 21.5821 43.2217 21.5747 46.4622 21.5968C46.9996 21.6012 47.2077 21.4834 47.1915 20.9005C47.1516 19.3594 47.156 17.8168 47.1841 16.2742C47.2166 14.4636 45.9573 13.4583 44.3732 13.4701C37.8553 13.5157 31.3359 13.4892 24.818 13.4892L24.8166 13.4907ZM42.5943 35.6894C44.7113 35.6894 46.8283 35.6805 48.9453 35.6967C49.3823 35.6997 49.5167 35.5525 49.5152 35.1227C49.5019 31.6532 49.5034 28.1838 49.5152 24.7144C49.5152 24.317 49.3927 24.1624 48.9778 24.1595C44.763 24.1374 40.5481 24.0682 36.3332 24.0829C33.4116 24.0932 30.8517 26.6986 30.7853 29.6072C30.707 33.0487 33.2743 35.6732 36.7407 35.6864C38.6924 35.6938 40.6441 35.6864 42.5957 35.6879L42.5943 35.6894ZM34.9042 11.0075C34.9145 10.9824 34.9263 10.9589 34.9367 10.9339C34.8392 10.8912 34.7418 10.847 34.6429 10.8058C28.3243 8.1813 22.0042 5.55679 15.6841 2.93522C13.855 2.17716 13.6616 2.264 12.9205 4.10985C12.0731 6.22212 11.236 8.3388 10.3724 10.4452C10.1849 10.903 10.2927 11.0399 10.7666 11.0148C11.2257 10.9913 11.6878 10.9854 12.1469 11.0163C12.5647 11.0443 12.7802 10.8809 12.922 10.4923C13.2851 9.49135 13.6778 8.50219 14.0661 7.51156C14.5252 6.3384 14.9947 6.12202 16.1979 6.51945C20.5456 7.95903 24.8933 9.39861 29.2411 10.8382C29.5024 10.925 29.7607 11.0119 30.0456 11.0104C31.6652 11.006 33.2847 11.0075 34.9042 11.0075ZM21.6617 11.0075C21.6617 10.978 21.6587 10.9471 21.6573 10.9177C19.9507 10.3598 18.2411 9.80782 16.5389 9.23523C16.189 9.11747 16.0384 9.22051 15.9366 9.54434C15.8332 9.87553 15.7018 10.1994 15.566 10.5188C15.4199 10.8588 15.4671 11.0163 15.8879 11.0134C17.813 11.0001 19.7366 11.0075 21.6617 11.0075Z" fill="#444444"/>
<path id="Vector_2" d="M13.0687 22.7877C14.5775 22.7877 16.0878 22.7832 17.5966 22.7891C18.4307 22.7921 18.9208 23.2042 18.9577 23.9093C18.9976 24.6482 18.5414 25.1722 17.7176 25.2341C17.04 25.2856 16.3565 25.2576 15.6759 25.2591C13.4304 25.2606 11.185 25.262 8.93801 25.2576C8.66342 25.2576 8.3844 25.2414 8.11571 25.1899C7.45875 25.0618 7.02915 24.5099 7.08377 23.8975C7.13839 23.2837 7.65067 22.8009 8.31796 22.795C9.90056 22.7803 11.4846 22.7906 13.0672 22.7906V22.7877H13.0687Z" fill="#444444"/>
<path id="Vector_3" d="M10.6607 20.5415C9.94322 20.5415 9.22721 20.5503 8.50973 20.5385C7.64609 20.5238 7.06147 19.9924 7.08362 19.2638C7.10576 18.5455 7.66528 18.0656 8.51268 18.0627C9.94618 18.0568 11.3797 18.0568 12.8132 18.0627C13.6989 18.0671 14.2688 18.5588 14.2673 19.2992C14.2673 20.0381 13.6975 20.5282 12.8102 20.5385C12.0942 20.5474 11.3767 20.54 10.6592 20.5385L10.6607 20.5415Z" fill="#444444"/>
<path id="Vector_4" d="M36.6211 26.316C38.6289 26.3204 40.1805 27.8719 40.1805 29.8767C40.1805 31.8977 38.6038 33.455 36.5636 33.4432C34.5735 33.4315 33.0278 31.8565 33.0322 29.8458C33.0367 27.8542 34.606 26.3116 36.6197 26.316H36.6211ZM37.6929 29.8487C37.6826 29.2172 37.2456 28.7933 36.6064 28.7948C35.9465 28.7948 35.508 29.2437 35.5213 29.9061C35.5331 30.5361 35.9716 30.963 36.6079 30.9615C37.2648 30.9615 37.7047 30.5111 37.6929 29.8487Z" fill="#444444"/>
</g>
</svg>
