<svg width="46" height="39" viewBox="0 0 46 39" fill="none" xmlns="http://www.w3.org/2000/svg">
<path d="M45.9987 7.01438V8.66048C45.8917 9.48998 45.7754 10.3182 45.6778 11.149C45.3343 14.0864 45.0001 17.0251 44.6579 19.9626C44.2769 23.229 43.896 26.4967 43.503 29.7618C43.265 31.7394 42.2999 33.1894 40.2306 33.7712C39.8296 33.8835 39.7186 34.0757 39.728 34.4472C39.7454 35.1929 39.613 35.9127 39.2214 36.5719C38.2228 38.2567 36.6468 38.9869 34.7085 38.9895C24.6388 39.0062 14.5705 38.9998 4.50081 38.992C3.76427 38.992 3.03708 38.8798 2.37539 38.5341C0.800709 37.7123 0 36.4403 0 34.7039C0.00133674 27.3984 0 20.0916 0 12.786C0 12.6274 0.00267349 12.4687 0.0120307 12.31C0.129664 10.3337 1.66959 8.59469 3.62658 8.24121C4.20272 8.13801 4.79089 8.20251 5.37371 8.19477C5.99529 8.18574 6.02604 8.1651 6.09822 7.57942C6.25195 6.34871 6.41637 5.11801 6.55806 3.88602C6.84145 1.41816 9.2369 -0.292443 11.4826 0.0416791C12.0868 0.131982 12.7004 0.165524 13.31 0.231316C15.5223 0.471265 17.7346 0.713793 19.9469 0.957612C22.1886 1.20401 24.4303 1.45299 26.672 1.6981C28.9138 1.94321 31.1568 2.18445 33.3985 2.42955C35.937 2.70691 38.4755 2.98943 41.0153 3.26163C42.0299 3.37 43.0338 3.48739 43.9214 4.04469C45.0523 4.75422 45.6979 5.76948 46 7.01438H45.9987ZM19.6448 10.424C14.648 10.424 9.65262 10.424 4.65588 10.424C3.36458 10.424 2.59328 11.0561 2.37272 12.2945C2.33262 12.5203 2.3139 12.7525 2.31257 12.9821C2.30856 17.7888 2.30989 22.5968 2.31257 27.4036C2.31257 27.5416 2.23771 27.7377 2.37406 27.8086C2.54249 27.8951 2.66146 27.7016 2.78577 27.6138C4.9914 26.0735 7.18767 24.5216 9.39597 22.9851C11.6577 21.41 14.0599 21.5248 16.1586 23.3012C18.0246 24.8815 19.8841 26.4696 21.7448 28.0563C22.9185 29.0574 24.0854 29.1851 25.4462 28.4227C29.2747 26.2773 33.0964 24.1217 36.9262 21.9776C37.2323 21.806 37.37 21.6074 37.3687 21.2565C37.3566 18.4558 37.362 15.6551 37.3606 12.8544C37.3606 12.6235 37.3446 12.3952 37.2724 12.1707C36.9208 11.0754 35.9704 10.4253 34.6765 10.424C29.665 10.4214 24.6549 10.424 19.6434 10.424H19.6448ZM19.6501 36.7087C24.7057 36.7087 29.7612 36.7125 34.8168 36.7061C36.4998 36.7048 37.3633 35.8663 37.3633 34.264C37.3633 31.1602 37.3633 28.0576 37.3633 24.9538C37.3633 24.3758 37.3606 24.3745 36.8553 24.657C33.464 26.5508 30.0754 28.4485 26.6801 30.3371C24.3835 31.6143 22.1271 31.3988 20.1407 29.7192C18.2171 28.0924 16.3069 26.4515 14.3753 24.8325C13.2765 23.9114 12.0654 23.8637 10.8904 24.6906C8.13542 26.6308 5.39376 28.5878 2.6414 30.5306C2.39678 30.7035 2.30321 30.8996 2.30588 31.1873C2.31791 32.2838 2.34866 33.3829 2.30053 34.4782C2.24707 35.7037 3.03307 36.7409 4.61711 36.7254C9.62722 36.679 14.6387 36.7087 19.6488 36.7087H19.6501ZM22.091 8.1909C26.279 8.1909 30.467 8.1909 34.6551 8.19219C34.9986 8.19219 35.3422 8.17671 35.683 8.2425C38.0892 8.70305 39.728 10.5994 39.7307 12.9705C39.7374 18.9318 39.7334 24.8931 39.7334 30.8544C39.7334 30.9847 39.7374 31.1137 39.7334 31.244C39.728 31.5201 39.863 31.5304 40.0702 31.4143C40.621 31.1047 40.9578 30.6571 41.0327 30.0353C41.2211 28.4459 41.411 26.8566 41.6021 25.266C41.8909 22.86 42.1796 20.4554 42.4697 18.0494C42.725 15.9299 42.987 13.8116 43.2383 11.6921C43.388 10.4317 43.5564 9.17263 43.654 7.90838C43.7489 6.68671 42.9937 5.80561 41.7425 5.65338C39.446 5.37473 37.1441 5.12962 34.8449 4.87032C32.6486 4.62263 30.4537 4.37494 28.2574 4.12984C26.0611 3.88473 23.8649 3.64349 21.6686 3.39838C19.4723 3.15327 17.2774 2.89913 15.0798 2.66563C13.7591 2.52502 12.4451 2.29797 11.115 2.26701C9.86383 2.23734 9.03104 2.92364 8.85726 4.11177C8.68749 5.26766 8.55649 6.4287 8.42014 7.58845C8.35732 8.12898 8.42015 8.18832 8.98692 8.18832C13.3541 8.18832 17.7212 8.18832 22.0897 8.18832L22.091 8.1909Z" fill="#E070B0"/>
<path d="M22.4879 13.0014C24.9598 13.0014 27.0025 15.263 27 17.9972C26.9975 20.7045 24.909 23.0112 22.4702 23C20.0148 22.9901 17.9949 20.7102 18 17.9534C18.0051 15.2221 20.0174 13 22.4879 13V13.0014ZM24.7478 17.9831C24.7478 16.5765 23.7156 15.4238 22.4765 15.4464C21.2311 15.469 20.1837 16.6526 20.2053 18.0127C20.2268 19.3953 21.2349 20.4957 22.4816 20.4986C23.7702 20.5 24.749 19.415 24.749 17.9845L24.7478 17.9831Z" fill="#E070B0"/>
</svg>
