<svg width="178" height="178" viewBox="0 0 178 178" fill="none" xmlns="http://www.w3.org/2000/svg">
<path d="M178 81.8437V96.7714C177.93 97.1099 177.828 97.4438 177.796 97.787C176.91 106.644 174.843 115.214 171.291 123.381C160.039 149.267 140.914 166.383 113.936 174.698C108.233 176.456 102.35 177.309 96.4433 178H81.8669C79.7574 177.708 77.6386 177.467 75.5337 177.119C52.3894 173.316 33.3112 162.418 19.0083 143.795C1.48313 120.969 -3.9784 95.2643 2.85083 67.3611C14.0335 21.641 59.8446 -7.69979 106.008 1.77904C140.404 8.84179 163.09 29.8956 174.333 63.1874C176.373 69.2299 177.291 75.5229 178 81.8437ZM21.8688 136.644C22.1192 135.999 22.2861 135.577 22.453 135.146C26.9595 123.32 34.0947 113.383 43.8262 105.309C49.1579 100.885 54.9997 97.2908 61.4023 94.6382C62.6634 94.1142 63.0529 93.6458 61.8243 92.6905C61.6434 92.5514 61.4951 92.3659 61.3328 92.2036C50.4468 81.3011 47.3266 63.5677 53.8406 49.6045C63.3774 29.1489 86.7164 20.9871 106.898 31.0456C129.834 42.4768 135.012 74.229 116.894 92.3102C115.285 93.9194 115.294 93.8962 117.371 94.8237C135.624 102.981 148.425 116.374 155.802 134.956C156.006 135.475 156.061 136.083 156.557 136.463C175.649 111.736 180.926 64.7734 148.017 31.1477C116.305 -1.2399 63.7576 -2.29722 30.8076 30.6422C-1.92917 63.3729 1.86794 110.396 21.8688 136.644ZM87.8801 171.818C92.3866 171.647 95.6273 171.707 98.8449 171.267C99.9298 171.118 101.024 171.011 102.104 170.826C121.312 167.575 137.484 158.764 150.623 144.356C151.485 143.41 151.657 142.607 151.267 141.416C144.605 120.969 131.215 106.946 111.182 99.206C109.875 98.7006 108.841 98.784 107.598 99.4333C96.6566 105.156 85.2792 106.065 74.0686 100.876C69.6549 98.8304 66.1963 98.9835 62.3342 101.172C62.2832 101.2 62.2276 101.223 62.1766 101.247C44.6747 109.649 32.88 123.024 27.0105 141.578C26.7091 142.538 26.7045 143.275 27.4555 144.096C44.0441 162.21 64.606 171.429 87.8801 171.818ZM56.9237 65.5478C56.7568 82.5717 70.7723 97.8705 89.7393 97.6803C107.348 97.5041 121.484 82.8036 121.428 65.0795C121.382 48.8254 108.331 33.0722 89.0948 33.1232C69.6827 33.1742 56.5667 49.1732 56.9237 65.5478Z" fill="#E070B0"/>
</svg>
