<svg width="38" height="46" viewBox="0 0 38 46" fill="none" xmlns="http://www.w3.org/2000/svg">
<g clip-path="url(#clip0_278_740)">
<path d="M19.2728 0C19.4056 0.121144 19.5686 0.220698 19.6653 0.365831C20.635 1.81117 21.5456 3.28409 22.2279 4.89614C23.1554 7.08513 21.7412 9.1062 20.1024 9.57279C19.7764 9.66515 19.7353 9.86545 19.7389 10.1437C19.7558 11.2712 19.6254 11.0925 20.6918 11.1081C21.0384 11.1129 21.3849 11.0997 21.7315 11.1129C22.2388 11.1321 22.5214 11.3924 22.5383 11.8913C22.5588 12.5042 22.5576 13.1184 22.5383 13.7313C22.5238 14.1979 22.2255 14.4953 21.8233 14.5037C21.4163 14.5121 21.1241 14.223 21.0734 13.7613C21.0698 13.7313 21.0698 13.7013 21.0685 13.6713C21.0267 12.9396 20.6294 12.5738 19.8766 12.5738C19.0481 12.5738 18.2197 12.5822 17.3912 12.5702C17.0688 12.5654 16.9323 12.6722 16.9335 13.0092C16.942 15.9419 16.942 18.8745 16.9335 21.8084C16.9335 22.1406 17.0531 22.2533 17.384 22.2497C18.454 22.2366 19.524 22.2306 20.5927 22.2521C20.984 22.2593 21.0758 22.101 21.0722 21.7472C21.0601 20.1459 21.0637 18.5447 21.0698 16.9434C21.0722 16.4252 21.2799 16.123 21.653 16.051C22.1687 15.9515 22.5395 16.2909 22.5431 16.9038C22.5527 18.4595 22.5467 20.0164 22.5467 21.5721C22.5467 21.9855 22.7508 22.211 23.159 22.2485C23.6614 22.2941 23.9114 22.552 23.9174 23.0678C23.9271 23.9362 23.9271 24.8034 23.9174 25.6718C23.9114 26.2055 23.6541 26.4742 23.1179 26.4934C22.6059 26.5126 22.0938 26.5018 21.5818 26.5006C21.3693 26.5006 21.1724 26.5294 21.1772 26.8005C21.1953 27.7996 21.0601 28.8083 21.3149 29.7943C21.8728 31.9569 23.8317 33.4094 26.1371 33.383C28.3253 33.3578 30.2346 31.8309 30.7612 29.7079C30.8469 29.3601 30.731 29.2797 30.4158 29.2857C29.9339 29.2953 29.4509 29.2965 28.969 29.2845C28.3845 29.2701 28.1164 29.0014 28.1092 28.4197C28.0995 27.5813 28.1007 26.7441 28.1092 25.9057C28.1152 25.3227 28.3748 25.0349 28.9642 25.0445C29.4013 25.0517 29.4919 24.8729 29.4907 24.4843C29.4798 21.3574 29.4847 18.2292 29.4847 15.1022C29.4847 14.0911 29.6851 13.892 30.6984 13.892C31.0896 13.892 31.4821 13.8788 31.8734 13.8956C32.1922 13.9088 32.3142 13.7673 32.2913 13.4674C32.2864 13.4074 32.284 13.3462 32.2925 13.2875C32.3698 12.7501 32.2019 12.4491 31.6319 12.232C30.0462 11.6274 29.0994 9.73112 29.696 8.05189C30.3349 6.25392 31.3408 4.65985 32.4289 3.11257C32.7804 2.6124 33.3202 2.62199 33.6692 3.12336C34.6969 4.60228 35.6787 6.11478 36.297 7.818C37.018 9.80068 36.1364 11.6454 34.1426 12.3675C33.8455 12.4755 33.7525 12.6266 33.7586 12.924C33.7839 14.0515 33.6318 13.8764 34.7066 13.892C35.0532 13.8968 35.3998 13.8836 35.7464 13.8968C36.2826 13.9172 36.5603 14.1811 36.5627 14.7076C36.5712 16.4888 36.5712 18.2688 36.5627 20.05C36.5603 20.5165 36.2632 20.8296 35.8671 20.8392C35.4927 20.8476 35.1788 20.5717 35.1401 20.1279C35.0459 19.0532 35.1172 17.9749 35.1003 16.8978C35.0942 16.5536 35.0846 16.2093 35.1027 15.8651C35.1208 15.5101 35.0024 15.3481 34.616 15.3541C33.546 15.3721 32.476 15.3685 31.4073 15.3553C31.0812 15.3517 30.9544 15.4597 30.9556 15.7955C30.9653 18.7282 30.9653 21.6608 30.9556 24.5947C30.9556 24.9281 31.0727 25.0409 31.4036 25.0361C32.4881 25.0229 33.5738 25.0229 34.6583 25.0361C34.9976 25.0397 35.1111 24.8981 35.1027 24.5791C35.0906 24.1161 35.087 23.6507 35.1135 23.1877C35.1437 22.6576 35.4481 22.3301 35.8587 22.3385C36.3019 22.3481 36.5639 22.6815 36.5688 23.2489C36.5724 23.7131 36.5772 24.1773 36.5688 24.6402C36.5639 24.8921 36.6388 25.0169 36.9214 25.0361C37.8332 25.0972 37.9986 25.2891 37.9998 26.2019C37.9998 26.9048 38.0059 27.6089 37.9974 28.3118C37.989 29.011 37.71 29.2785 36.9975 29.2869C36.4999 29.2929 36.0036 29.2965 35.506 29.2869C35.244 29.2821 35.1462 29.3805 35.1135 29.6479C34.4964 34.5417 30.1501 38.0489 25.2168 37.6267C23.9114 37.5151 22.6747 37.1373 21.5383 36.4824C21.1978 36.2857 21.1012 36.3361 21.112 36.7247C21.1301 37.3832 21.1229 38.0417 21.1144 38.7002C21.1108 38.9425 21.1869 39.0744 21.4369 39.1548C22.6433 39.5386 23.4368 40.3458 23.8015 41.5489C23.8824 41.8151 24.0611 41.8787 24.2809 41.9531C25.7458 42.4496 26.6841 43.6695 26.73 45.1244C26.7493 45.7229 26.5054 45.9964 25.9112 45.9964C21.3004 46 16.6908 46 12.08 45.9964C11.5124 45.9964 11.2648 45.7181 11.2769 45.152C11.3071 43.7235 12.2406 42.464 13.6632 41.9831C13.9772 41.8763 14.1535 41.7312 14.2598 41.4049C14.6245 40.2942 15.3902 39.5482 16.5048 39.1811C16.7995 39.084 16.9082 38.9437 16.8985 38.6366C16.878 37.9937 16.8816 37.3496 16.8961 36.7067C16.9046 36.3517 16.8273 36.2977 16.4928 36.4704C12.9229 38.3139 9.48595 38.0789 6.28325 35.656C4.31478 34.1663 3.21581 32.1176 2.8982 29.6743C2.86076 29.3901 2.76898 29.2797 2.48398 29.2869C1.97193 29.3001 1.45989 29.2965 0.947843 29.2869C0.315033 29.2749 0.025196 29.0038 0.0143272 28.3849C-0.000164659 27.5777 0.00104299 26.7693 0.0143272 25.9608C0.0239884 25.3323 0.298126 25.0349 0.926105 25.0457C1.36328 25.0529 1.45264 24.8813 1.44781 24.4903C1.4297 22.9946 1.43694 21.4977 1.44298 20.0008C1.4454 19.473 1.69296 19.19 2.13497 19.184C2.519 19.178 2.77502 19.3663 2.84748 19.7381C2.8982 19.9996 2.90545 20.2731 2.90666 20.5405C2.91269 21.8719 2.91752 23.2045 2.90424 24.5359C2.90062 24.8957 3.01414 25.0457 3.39575 25.0397C4.46573 25.0217 5.53572 25.0253 6.60449 25.0385C6.93538 25.0421 7.05253 24.9305 7.05253 24.5971C7.04287 21.6644 7.04287 18.7318 7.05253 15.7979C7.05253 15.4621 6.92693 15.3541 6.60086 15.3577C5.53088 15.3697 4.4609 15.3745 3.39213 15.3565C3.00568 15.3505 2.88975 15.5125 2.90545 15.8675C2.91994 16.2105 2.91632 16.5572 2.88009 16.8978C2.82574 17.4184 2.53591 17.6775 2.10357 17.6427C1.68813 17.6091 1.44902 17.3272 1.44298 16.8318C1.43453 16.1434 1.43453 15.4549 1.44298 14.7664C1.45023 14.1607 1.7147 13.9052 2.33785 13.8956C2.8499 13.8872 3.36194 13.8848 3.87399 13.8956C4.14571 13.9016 4.26406 13.79 4.24353 13.5226C4.23628 13.4338 4.23024 13.3403 4.24594 13.2539C4.34376 12.7093 4.12155 12.4575 3.58536 12.2524C1.93933 11.6238 1.07465 9.79469 1.60843 8.12985C2.20018 6.2839 3.2605 4.67665 4.35825 3.10057C4.69036 2.62319 5.24105 2.62319 5.57194 3.09937C6.67815 4.68864 7.74693 6.30669 8.33988 8.16944C8.87367 9.84746 7.92687 11.6646 6.23132 12.3183C6.04534 12.3903 5.77242 12.3783 5.74222 12.647C5.69996 13.0164 5.66614 13.3954 5.76758 13.7601C5.81227 13.9184 5.98738 13.8908 6.12022 13.892C6.61777 13.8956 7.11412 13.8884 7.61167 13.8968C8.19859 13.9064 8.45944 14.1499 8.51379 14.734C8.53069 14.9127 8.52466 15.0926 8.52466 15.2726C8.52466 18.3252 8.53069 21.3777 8.51862 24.4303C8.51741 24.8465 8.58745 25.0637 9.08018 25.0493C9.63449 25.0337 9.89534 25.3359 9.90138 25.8973C9.91104 26.7357 9.91104 27.5729 9.90138 28.4113C9.89534 29.0146 9.62483 29.2773 9.00772 29.2893C8.52586 29.2989 8.0428 29.2989 7.56095 29.2893C7.25058 29.2833 7.1745 29.3925 7.24817 29.6995C7.73002 31.7038 9.60067 33.2619 11.5909 33.3866C14.1523 33.5473 16.0326 31.8885 16.6196 30.0665C16.9686 28.9846 16.8152 27.8716 16.8285 26.7681C16.8321 26.521 16.6304 26.503 16.4396 26.503C15.9578 26.503 15.4747 26.5078 14.9928 26.4994C14.3431 26.4874 14.0931 26.2367 14.0895 25.595C14.0835 24.7722 14.0835 23.9494 14.0895 23.1265C14.0943 22.528 14.3383 22.2449 14.9276 22.2593C15.389 22.2713 15.4711 22.083 15.4687 21.6764C15.4554 18.5195 15.4602 15.3613 15.4614 12.2044C15.4614 11.3288 15.6788 11.1117 16.5483 11.1093C17 11.1093 17.4528 11.1033 17.9045 11.1093C18.146 11.1129 18.2777 11.0241 18.2644 10.771C18.2608 10.6967 18.2571 10.6199 18.2668 10.5467C18.3477 9.9818 18.1798 9.66754 17.5748 9.42646C15.8841 8.75357 15.0919 6.92081 15.6836 5.19601C16.2923 3.42202 17.3333 1.87474 18.3682 0.329848C18.4564 0.197909 18.611 0.10915 18.7342 0.00119945C18.9153 0.00119945 19.0952 0.00119945 19.2764 0.00119945L19.2728 0ZM19.693 36.6995C19.693 36.6995 19.6967 36.6995 19.6979 36.6995C19.6979 36.0566 19.6773 35.4125 19.7039 34.7696C19.7305 34.1351 20.2328 33.882 20.7823 34.2058C20.9888 34.327 21.1772 34.4793 21.3753 34.6161C22.9283 35.6812 24.6046 36.3169 26.5356 36.1825C30.0499 35.939 32.9591 33.3926 33.5955 29.9634C33.6785 29.5156 33.4909 29.2913 33.0328 29.2905C32.5747 29.2897 32.2993 29.4976 32.2067 29.9142C31.6162 32.6034 29.2504 34.6328 26.4571 34.8463C23.7785 35.0514 21.1736 33.413 20.1459 30.917C19.6749 29.7715 19.6882 28.584 19.6918 27.3858C19.6942 26.4178 19.8404 26.5234 18.8018 26.4934C18.3888 26.4814 18.2982 26.6421 18.297 27.0199C18.2946 27.856 18.3682 28.6932 18.2318 29.528C17.7463 32.493 15.2223 34.754 12.2744 34.8535C9.2094 34.9567 6.5272 32.944 5.82193 30.009C5.63837 29.2449 5.80864 29.2917 4.88479 29.2905C4.8546 29.2905 4.82441 29.2941 4.79422 29.2905C4.39931 29.2305 4.31116 29.3925 4.37275 29.7703C5.02126 33.804 8.83261 36.7835 13.156 36.1142C14.5714 35.8947 15.8128 35.2721 16.9396 34.4037C17.2185 34.189 17.5011 33.8964 17.9069 34.0895C18.3187 34.2862 18.3079 34.6808 18.3079 35.061C18.3066 36.0638 18.3006 37.0665 18.3091 38.0681C18.3175 39.018 18.1327 38.964 19.2365 38.976C19.5988 38.9796 19.7075 38.8357 19.6967 38.4939C19.6773 37.8965 19.6906 37.2968 19.6906 36.6983L19.693 36.6995ZM18.9552 44.5919C20.8669 44.5919 22.7774 44.5919 24.6891 44.5895C24.8159 44.5895 24.9886 44.6542 25.0562 44.5019C25.1166 44.3688 24.9995 44.2464 24.9234 44.1397C24.4947 43.5315 23.8896 43.2245 23.1542 43.2221C20.385 43.2113 17.6159 43.2113 14.8467 43.2221C14.1294 43.2245 13.534 43.5207 13.1029 44.1025C13.0159 44.2188 12.8795 44.3544 12.9447 44.5007C13.0195 44.6662 13.214 44.5883 13.3553 44.5883C15.2211 44.5931 17.0881 44.5919 18.9539 44.5919H18.9552ZM2.91028 8.98866C2.90424 9.81028 3.23876 10.362 3.83896 10.7686C4.08895 10.9378 4.25077 10.9438 4.24111 10.5671C4.23024 10.0742 4.22783 9.57998 4.24473 9.08821C4.26164 8.61683 4.59858 8.30137 5.01522 8.33256C5.38717 8.36015 5.65527 8.63722 5.68788 9.10381C5.72169 9.57999 5.70358 10.0598 5.71324 10.5371C5.71566 10.6511 5.67459 10.7986 5.81106 10.8562C5.93666 10.9102 6.03568 10.8022 6.1323 10.7375C6.95954 10.1869 7.22764 9.22015 6.82307 8.20062C6.3847 7.09833 5.76758 6.08839 5.1553 5.07606C5.00193 4.82178 4.90532 4.83857 4.76161 5.07726C4.15899 6.0776 3.55154 7.07434 3.11316 8.16104C2.99481 8.4537 2.90545 8.75357 2.90907 8.98626L2.91028 8.98866ZM33.7549 9.85106C33.7549 9.85106 33.761 9.85106 33.7646 9.85106C33.7646 10.0898 33.773 10.3296 33.7622 10.5683C33.7453 10.9474 33.9119 10.9234 34.1667 10.7698C34.9082 10.3236 35.279 9.41206 35.0097 8.54366C34.6124 7.25906 33.8745 6.14237 33.1849 5.0017C33.0823 4.83257 32.9941 4.83977 32.8939 5.00409C32.1995 6.14117 31.4785 7.26745 31.0643 8.54486C30.7974 9.36648 31.1452 10.2589 31.8722 10.7387C31.9688 10.8022 32.0666 10.9138 32.1934 10.8562C32.3275 10.795 32.284 10.6487 32.2888 10.5347C32.3142 9.99859 32.2357 9.45764 32.3432 8.92509C32.4217 8.53527 32.6741 8.31577 33.0762 8.34096C33.4736 8.36615 33.7103 8.61083 33.7501 9.00185C33.7779 9.28252 33.7561 9.56919 33.7561 9.85346L33.7549 9.85106ZM21.0698 6.27191C21.0553 6.15197 21.0601 6.01163 21.0202 5.88689C20.5988 4.57949 19.8875 3.41603 19.1701 2.25736C19.03 2.03066 18.9056 2.13262 18.8018 2.29934C18.1279 3.39683 17.4528 4.49673 17.0338 5.72256C16.7512 6.55138 17.1074 7.49055 17.8441 7.95713C17.9419 8.0195 18.0434 8.12985 18.1666 8.07588C18.3042 8.01711 18.2547 7.86718 18.2559 7.75443C18.262 7.30583 18.2523 6.85724 18.262 6.40865C18.274 5.87489 18.547 5.55584 18.9805 5.54504C19.4298 5.53305 19.7244 5.8653 19.7377 6.41584C19.7474 6.83445 19.7341 7.25306 19.7437 7.67166C19.7474 7.812 19.6713 8.00151 19.8404 8.07588C19.9708 8.13345 20.0916 8.00511 20.199 7.92835C20.7606 7.52413 21.0444 6.97359 21.0685 6.27191H21.0698ZM18.9962 25.0301C20.0179 25.0301 21.0396 25.0205 22.0612 25.0349C22.3958 25.0397 22.5346 24.9185 22.4984 24.5899C22.4875 24.4867 22.4839 24.3788 22.4984 24.2768C22.5709 23.809 22.3547 23.6999 21.9127 23.7047C20.0505 23.7263 18.1871 23.7119 16.3237 23.7143C15.4119 23.7143 15.5302 23.6375 15.4976 24.5359C15.4832 24.9437 15.6401 25.0445 16.0218 25.0361C17.0132 25.0145 18.0047 25.0289 18.9962 25.0289V25.0301ZM4.97778 26.5042C3.95369 26.5042 2.9296 26.5114 1.9043 26.4994C1.59394 26.4958 1.45264 26.6073 1.48404 26.918C1.49008 26.9768 1.48404 27.0379 1.48404 27.0979C1.48243 27.5777 1.71672 27.818 2.18689 27.8188C4.00924 27.8188 5.8328 27.8188 7.65515 27.8188C8.4365 27.8188 8.41959 27.8188 8.43046 27.0199C8.43529 26.6361 8.31936 26.4874 7.91479 26.497C6.93659 26.5198 5.95719 26.5042 4.97778 26.5042ZM33.0134 26.5042C32.0497 26.5042 31.0848 26.5018 30.1211 26.5042C29.5789 26.5054 29.5789 26.509 29.5789 27.1651C29.5789 27.808 29.5837 27.8176 30.132 27.8176C31.9845 27.82 33.8383 27.8176 35.6908 27.8176C36.5301 27.8176 36.5096 27.8176 36.5265 26.996C36.535 26.587 36.3767 26.4874 35.9963 26.4946C35.0024 26.515 34.0085 26.5018 33.0134 26.5018V26.5042ZM18.9829 41.8031C19.9587 41.8031 20.9357 41.8043 21.9115 41.8007C22.0262 41.8007 22.1748 41.8511 22.2436 41.7288C22.3221 41.5896 22.2001 41.4733 22.1277 41.3677C21.7074 40.7548 21.1036 40.4538 20.3705 40.4382C19.4551 40.419 18.5385 40.4178 17.6219 40.4382C16.8889 40.455 16.2874 40.7596 15.8684 41.3737C15.7971 41.4781 15.6728 41.5956 15.7609 41.7336C15.8346 41.8487 15.9819 41.7995 16.0966 41.7995C17.0579 41.8031 18.0192 41.8019 18.9805 41.8019L18.9829 41.8031Z" fill="white"/>
</g>
<defs>
<clipPath id="clip0_278_740">
<rect width="38" height="46" fill="white"/>
</clipPath>
</defs>
</svg>
