<svg width="39" height="45" viewBox="0 0 39 45" fill="none" xmlns="http://www.w3.org/2000/svg">
<g clip-path="url(#clip0_83_12)">
<path d="M19.7808 0C19.9172 0.118511 20.0845 0.215901 20.1836 0.357879C21.1789 1.77179 22.1134 3.21269 22.8137 4.78971C23.7656 6.93111 22.3142 8.90824 20.6323 9.36468C20.2977 9.45503 20.2555 9.65099 20.2592 9.92321C20.2766 11.0262 20.1427 10.8513 21.2371 10.8666C21.5929 10.8713 21.9486 10.8584 22.3043 10.8713C22.8249 10.8901 23.1149 11.1447 23.1322 11.6328C23.1533 12.2324 23.1521 12.8332 23.1322 13.4328C23.1174 13.8892 22.8112 14.1802 22.3985 14.1884C21.9808 14.1966 21.6809 13.9139 21.6288 13.4621C21.6251 13.4328 21.6251 13.4034 21.6239 13.3741C21.5809 12.6583 21.1731 12.3005 20.4005 12.3005C19.5503 12.3005 18.7 12.3087 17.8498 12.2969C17.5188 12.2922 17.3788 12.3967 17.38 12.7264C17.3887 15.5953 17.3887 18.4642 17.38 21.3343C17.38 21.6593 17.5027 21.7696 17.8423 21.7661C18.9405 21.7532 20.0386 21.7473 21.1355 21.7684C21.5371 21.7754 21.6313 21.6206 21.6276 21.2744C21.6152 19.708 21.6189 18.1415 21.6251 16.5751C21.6276 16.0682 21.8408 15.7725 22.2237 15.7021C22.753 15.6047 23.1335 15.9367 23.1372 16.5363C23.1471 18.0582 23.1409 19.5812 23.1409 21.1031C23.1409 21.5075 23.3504 21.7281 23.7693 21.7649C24.2849 21.8095 24.5415 22.0617 24.5477 22.5663C24.5576 23.4158 24.5576 24.2642 24.5477 25.1137C24.5415 25.6358 24.2775 25.8987 23.7272 25.9175C23.2016 25.9362 22.6761 25.9257 22.1506 25.9245C21.9325 25.9245 21.7304 25.9527 21.7354 26.2178C21.754 27.1953 21.6152 28.1821 21.8767 29.1466C22.4493 31.2622 24.4597 32.6831 26.8257 32.6573C29.0716 32.6327 31.0311 31.139 31.5715 29.0621C31.6595 28.7218 31.5406 28.6432 31.2171 28.6491C30.7225 28.6584 30.2268 28.6596 29.7322 28.6479C29.1323 28.6338 28.8572 28.371 28.8497 27.8019C28.8398 26.9817 28.8411 26.1627 28.8497 25.3425C28.8559 24.7722 29.1224 24.4906 29.7273 24.5C30.1759 24.5071 30.2689 24.3322 30.2677 23.9521C30.2565 20.8931 30.2615 17.8329 30.2615 14.7739C30.2615 13.7848 30.4672 13.59 31.5071 13.59C31.9087 13.59 32.3115 13.5771 32.7131 13.5935C33.0403 13.6064 33.1654 13.468 33.1419 13.1746C33.1369 13.116 33.1345 13.0561 33.1431 12.9986C33.2225 12.4729 33.0502 12.1784 32.4652 11.9661C30.8378 11.3747 29.8661 9.51957 30.4784 7.87685C31.134 6.11796 32.1665 4.55855 33.2832 3.0449C33.6439 2.55561 34.1979 2.56499 34.5561 3.05546C35.6108 4.50223 36.6185 5.98185 37.2531 7.64804C37.993 9.58763 37.0883 11.3923 35.0419 12.0986C34.737 12.2042 34.6416 12.3521 34.6478 12.6431C34.6738 13.7461 34.5177 13.5747 35.6208 13.59C35.9765 13.5947 36.3322 13.5818 36.6879 13.5947C37.2382 13.6146 37.5233 13.8728 37.5258 14.3879C37.5344 16.1304 37.5344 17.8716 37.5258 19.6141C37.5233 20.0705 37.2184 20.3768 36.8119 20.3862C36.4276 20.3944 36.1054 20.1245 36.0657 19.6904C35.969 18.639 36.0422 17.5842 36.0248 16.5305C36.0186 16.1937 36.0087 15.857 36.0273 15.5202C36.0459 15.1729 35.9244 15.0145 35.5278 15.0203C34.4297 15.0379 33.3315 15.0344 32.2346 15.0215C31.9 15.018 31.7698 15.1236 31.7711 15.4521C31.781 18.321 31.781 21.1899 31.7711 24.06C31.7711 24.3862 31.8913 24.4965 32.2309 24.4918C33.3439 24.4789 34.4582 24.4789 35.5712 24.4918C35.9195 24.4953 36.036 24.3569 36.0273 24.0447C36.0149 23.5918 36.0112 23.1366 36.0385 22.6836C36.0694 22.165 36.3818 21.8447 36.8032 21.8529C37.2581 21.8623 37.527 22.1885 37.532 22.7435C37.5357 23.1976 37.5406 23.6517 37.532 24.1046C37.527 24.351 37.6039 24.473 37.8939 24.4918C38.8297 24.5516 38.9995 24.7394 39.0007 25.6323C39.0007 26.3199 39.0069 27.0087 38.9982 27.6963C38.9895 28.3804 38.7032 28.642 37.972 28.6502C37.4613 28.6561 36.9519 28.6596 36.4413 28.6502C36.1723 28.6455 36.0719 28.7418 36.0385 29.0034C35.4051 33.7908 30.9444 37.2217 25.8813 36.8087C24.5415 36.6996 23.2723 36.33 22.106 35.6893C21.7565 35.4969 21.6573 35.5461 21.6685 35.9263C21.6871 36.5705 21.6796 37.2147 21.6709 37.8589C21.6672 38.0959 21.7453 38.225 22.0019 38.3036C23.2401 38.679 24.0544 39.4687 24.4287 40.6456C24.5117 40.9061 24.6952 40.9683 24.9207 41.041C26.4242 41.5268 27.3872 42.7201 27.4343 44.1434C27.4541 44.729 27.2038 44.9965 26.594 44.9965C21.8618 45 17.1309 45 12.3988 44.9965C11.8162 44.9965 11.5621 44.7243 11.5745 44.1704C11.6055 42.7729 12.5636 41.5409 14.0236 41.0704C14.3459 40.9659 14.5269 40.824 14.6359 40.5048C15.0102 39.4183 15.796 38.6884 16.94 38.3294C17.2425 38.2343 17.354 38.0971 17.3441 37.7967C17.323 37.1677 17.3267 36.5376 17.3416 35.9087C17.3503 35.5614 17.271 35.5086 16.9276 35.6776C13.2639 37.481 9.73645 37.2511 6.44947 34.8808C4.4292 33.4235 3.30131 31.4194 2.97534 29.0292C2.93692 28.7511 2.84272 28.6432 2.55022 28.6502C2.0247 28.6631 1.49918 28.6596 0.97366 28.6502C0.324197 28.6385 0.0267329 28.3733 0.015578 27.7679C0.000704775 26.9782 0.00194421 26.1873 0.015578 25.3965C0.0254934 24.7816 0.306845 24.4906 0.95135 24.5012C1.40002 24.5082 1.49174 24.3404 1.48678 23.9579C1.46819 22.4947 1.47563 21.0304 1.48183 19.566C1.48431 19.0497 1.73839 18.7728 2.19202 18.7669C2.58616 18.7611 2.84892 18.9453 2.92329 19.309C2.97534 19.5648 2.98278 19.8323 2.98402 20.094C2.99022 21.3964 2.99517 22.7001 2.98154 24.0025C2.97782 24.3545 3.09433 24.5012 3.48599 24.4953C4.58413 24.4777 5.68226 24.4812 6.77916 24.4941C7.11877 24.4977 7.23899 24.3885 7.23899 24.0623C7.22908 21.1935 7.22908 18.3246 7.23899 15.4545C7.23899 15.1259 7.11009 15.0203 6.77544 15.0239C5.67731 15.0356 4.57917 15.0403 3.48227 15.0227C3.08565 15.0168 2.96667 15.1752 2.98278 15.5225C2.99765 15.8581 2.99394 16.1972 2.95675 16.5305C2.90098 17.0397 2.60351 17.2932 2.1598 17.2591C1.73343 17.2263 1.48802 16.9505 1.48183 16.4659C1.47315 15.7924 1.47315 15.1189 1.48183 14.4454C1.48926 13.8528 1.7607 13.6029 2.40025 13.5935C2.92577 13.5853 3.45129 13.583 3.97681 13.5935C4.25568 13.5994 4.37714 13.4903 4.35607 13.2286C4.34863 13.1418 4.34244 13.0502 4.35855 12.9658C4.45894 12.4331 4.23089 12.1866 3.68058 11.986C1.99123 11.3712 1.1038 9.58176 1.65163 7.95312C2.25895 6.1473 3.34717 4.57498 4.47382 3.03317C4.81466 2.56617 5.37984 2.56617 5.71945 3.03199C6.85477 4.58671 7.95167 6.16959 8.56023 7.99184C9.10806 9.63339 8.13634 11.411 6.39618 12.0505C6.20531 12.1209 5.92519 12.1092 5.89421 12.372C5.85083 12.7334 5.81612 13.1042 5.92024 13.4609C5.96609 13.6158 6.14581 13.5888 6.28215 13.59C6.7928 13.5935 7.3022 13.5865 7.81285 13.5947C8.41521 13.6041 8.68293 13.8423 8.73871 14.4137C8.75606 14.5885 8.74986 14.7645 8.74986 14.9406C8.74986 17.9268 8.75606 20.913 8.74366 23.8992C8.74243 24.3064 8.81431 24.5188 9.32 24.5047C9.8889 24.4895 10.1566 24.7851 10.1628 25.3343C10.1727 26.1545 10.1727 26.9735 10.1628 27.7937C10.1566 28.3839 9.87898 28.6408 9.24563 28.6526C8.7511 28.662 8.25533 28.662 7.76079 28.6526C7.44226 28.6467 7.36418 28.7535 7.43978 29.0539C7.93431 31.0146 9.8542 32.5388 11.8968 32.6608C14.5256 32.8181 16.4554 31.1953 17.0578 29.4129C17.416 28.3545 17.2586 27.2657 17.2722 26.1862C17.2759 25.9444 17.0689 25.9268 16.8731 25.9268C16.3786 25.9268 15.8828 25.9315 15.3883 25.9233C14.7214 25.9116 14.4649 25.6663 14.4612 25.0386C14.455 24.2337 14.455 23.4287 14.4612 22.6238C14.4661 22.0383 14.7165 21.7614 15.3213 21.7754C15.7948 21.7872 15.8791 21.603 15.8766 21.2052C15.863 18.1169 15.8679 15.0274 15.8692 11.9391C15.8692 11.0825 16.0923 10.8701 16.9847 10.8678C17.4482 10.8678 17.913 10.8619 18.3765 10.8678C18.6244 10.8713 18.7595 10.7845 18.7459 10.5369C18.7422 10.4641 18.7385 10.389 18.7484 10.3175C18.8314 9.76481 18.6591 9.45738 18.0382 9.22153C16.303 8.56327 15.4899 6.77036 16.0972 5.08305C16.7219 3.34763 17.7903 1.83398 18.8525 0.322677C18.943 0.193606 19.1016 0.106777 19.228 0.00117337C19.4139 0.00117337 19.5986 0.00117337 19.7845 0.00117337L19.7808 0ZM20.2121 35.9017C20.2121 35.9017 20.2159 35.9017 20.2171 35.9017C20.2171 35.2727 20.196 34.6426 20.2233 34.0137C20.2506 33.393 20.7662 33.1454 21.3301 33.4622C21.542 33.5807 21.7354 33.7298 21.9387 33.8635C23.5326 34.9055 25.2529 35.5274 27.2348 35.396C30.8415 35.1578 33.8273 32.6667 34.4805 29.312C34.5656 28.874 34.3731 28.6545 33.9029 28.6538C33.4328 28.653 33.1502 28.8564 33.0551 29.2639C32.4491 31.8946 30.021 33.88 27.1542 34.0888C24.4051 34.2895 21.7317 32.6866 20.6769 30.2448C20.1935 29.1243 20.2072 27.9626 20.2109 26.7904C20.2134 25.8435 20.3633 25.9468 19.2974 25.9175C18.8735 25.9057 18.7806 26.0629 18.7794 26.4326C18.7769 27.2504 18.8525 28.0694 18.7124 28.8861C18.2142 31.7867 15.6238 33.9985 12.5983 34.0959C9.45262 34.1968 6.69984 32.2278 5.97601 29.3566C5.78762 28.6092 5.96238 28.6549 5.01421 28.6538C4.98322 28.6538 4.95224 28.6573 4.92125 28.6538C4.51596 28.5951 4.42548 28.7535 4.48869 29.1231C5.15427 33.0692 9.06592 35.9838 13.5031 35.3291C14.9557 35.1143 16.2298 34.5054 17.3862 33.6558C17.6725 33.4458 17.9626 33.1595 18.379 33.3484C18.8017 33.5408 18.7905 33.9269 18.7905 34.2988C18.7893 35.2798 18.7831 36.2607 18.7917 37.2405C18.8004 38.1698 18.6108 38.117 19.7436 38.1287C20.1155 38.1323 20.227 37.9915 20.2159 37.657C20.196 37.0727 20.2097 36.486 20.2097 35.9005L20.2121 35.9017ZM19.4548 43.6225C21.4169 43.6225 23.3776 43.6225 25.3397 43.6201C25.4698 43.6201 25.647 43.6835 25.7165 43.5345C25.7784 43.4042 25.6582 43.2845 25.5801 43.1801C25.1401 42.5852 24.5192 42.2848 23.7644 42.2825C20.9223 42.2719 18.0803 42.2719 15.2383 42.2825C14.5021 42.2848 13.891 42.5746 13.4486 43.1437C13.3593 43.2575 13.2193 43.3901 13.2862 43.5333C13.363 43.6952 13.5626 43.6189 13.7076 43.6189C15.6225 43.6236 17.5387 43.6225 19.4536 43.6225H19.4548ZM2.98774 8.79325C2.98154 9.59701 3.32486 10.1368 3.94086 10.5345C4.19742 10.7 4.36351 10.7058 4.35359 10.3374C4.34244 9.85515 4.33996 9.37173 4.35731 8.89064C4.37466 8.42951 4.72046 8.12091 5.14807 8.15142C5.52981 8.17841 5.80497 8.44945 5.83843 8.9059C5.87314 9.37173 5.85455 9.84107 5.86446 10.3081C5.86694 10.4195 5.8248 10.5639 5.96486 10.6202C6.09376 10.673 6.19539 10.5674 6.29454 10.504C7.14356 9.96545 7.41871 9.01971 7.0035 8.02235C6.55359 6.94402 5.92024 5.95604 5.29184 4.96571C5.13444 4.71696 5.03528 4.73338 4.88779 4.96689C4.26931 5.94548 3.64588 6.92055 3.19596 7.98363C3.0745 8.26993 2.98278 8.56327 2.9865 8.79091L2.98774 8.79325ZM34.6441 9.63691C34.6441 9.63691 34.6503 9.63691 34.654 9.63691C34.654 9.87041 34.6627 10.1051 34.6515 10.3386C34.6342 10.7094 34.8052 10.6859 35.0667 10.5357C35.8278 10.0992 36.2083 9.20745 35.9319 8.35793C35.5241 7.10125 34.7668 6.00884 34.0591 4.89296C33.9537 4.72752 33.8632 4.73456 33.7604 4.89531C33.0477 6.00767 32.3078 7.10946 31.8826 8.3591C31.6087 9.16286 31.9657 10.0359 32.7118 10.5052C32.811 10.5674 32.9114 10.6765 33.0415 10.6202C33.1791 10.5604 33.1345 10.4172 33.1394 10.3057C33.1654 9.78123 33.0849 9.25204 33.1952 8.73106C33.2758 8.34972 33.5348 8.13499 33.9475 8.15963C34.3553 8.18427 34.5982 8.42364 34.6391 8.80616C34.6676 9.08073 34.6453 9.36117 34.6453 9.63925L34.6441 9.63691ZM21.6251 6.13556C21.6102 6.01823 21.6152 5.88094 21.5743 5.75891C21.1417 4.47994 20.4117 3.34176 19.6755 2.20829C19.5317 1.98652 19.404 2.08626 19.2974 2.24935C18.6058 3.32299 17.913 4.39897 17.4829 5.59816C17.1929 6.40896 17.5585 7.32771 18.3146 7.78415C18.415 7.84517 18.5191 7.95312 18.6455 7.90032C18.7868 7.84282 18.736 7.69615 18.7372 7.58585C18.7434 7.14701 18.7335 6.70817 18.7434 6.26933C18.7558 5.74718 19.0359 5.43506 19.4809 5.4245C19.9419 5.41277 20.2444 5.73779 20.258 6.27637C20.2679 6.68588 20.2543 7.09538 20.2642 7.50489C20.2679 7.64217 20.1898 7.82757 20.3633 7.90032C20.4972 7.95664 20.6211 7.83109 20.7315 7.75599C21.3078 7.36057 21.5991 6.82199 21.6239 6.13556H21.6251ZM19.497 24.4859C20.5455 24.4859 21.5941 24.4765 22.6427 24.4906C22.986 24.4953 23.1285 24.3768 23.0913 24.0553C23.0802 23.9544 23.0765 23.8488 23.0913 23.7491C23.1657 23.2914 22.9438 23.1847 22.4902 23.1894C20.579 23.2105 18.6666 23.1964 16.7541 23.1987C15.8183 23.1987 15.9398 23.1236 15.9063 24.0025C15.8915 24.4015 16.0526 24.5 16.4443 24.4918C17.4618 24.4707 18.4794 24.4848 19.497 24.4848V24.4859ZM5.10965 25.928C4.05861 25.928 3.00757 25.935 1.95529 25.9233C1.63676 25.9198 1.49174 26.0289 1.52397 26.3328C1.53016 26.3903 1.52397 26.4502 1.52397 26.5088C1.52232 26.9782 1.76277 27.2132 2.24532 27.214C4.11562 27.214 5.98717 27.214 7.85747 27.214C8.65938 27.214 8.64203 27.214 8.65319 26.4326C8.65814 26.0571 8.53916 25.9116 8.12395 25.921C7.12001 25.9433 6.11483 25.928 5.10965 25.928ZM33.8831 25.928C32.894 25.928 31.9037 25.9257 30.9146 25.928C30.3581 25.9292 30.3581 25.9327 30.3581 26.5745C30.3581 27.2035 30.3631 27.2129 30.9258 27.2129C32.8271 27.2152 34.7296 27.2129 36.6309 27.2129C37.4923 27.2129 37.4712 27.2129 37.4886 26.4091C37.4973 26.009 37.3349 25.9116 36.9445 25.9186C35.9244 25.9386 34.9044 25.9257 33.8831 25.9257V25.928ZM19.4834 40.8944C20.4848 40.8944 21.4875 40.8955 22.489 40.892C22.6067 40.892 22.7592 40.9413 22.8298 40.8216C22.9104 40.6855 22.7852 40.5717 22.7108 40.4684C22.2795 39.8688 21.6598 39.5743 20.9075 39.5591C19.968 39.5403 19.0272 39.5391 18.0865 39.5591C17.3342 39.5755 16.7169 39.8735 16.2869 40.4743C16.2137 40.5764 16.0861 40.6914 16.1765 40.8263C16.2521 40.939 16.4034 40.8909 16.5211 40.8909C17.5077 40.8944 18.4943 40.8932 19.4809 40.8932L19.4834 40.8944Z" fill="#E070B0"/>
</g>
<defs>
<clipPath id="clip0_83_12">
<rect width="39" height="45" fill="white"/>
</clipPath>
</defs>
</svg>
