<svg width="101" height="88" viewBox="0 0 101 88" fill="none" xmlns="http://www.w3.org/2000/svg">
<path d="M100.985 0.489983H102.985V-1.78279L100.731 -1.49377L100.985 0.489983ZM100.985 16.45L101.233 18.4345L102.985 18.2155V16.45H100.985ZM89.3 21.865L87.9293 20.4086L87.9072 20.4294L87.8858 20.4508L89.3 21.865ZM82.175 33.55L80.2932 32.8725L80.2852 32.8949L80.2776 32.9175L82.175 33.55ZM79.895 48.37H77.895V50.37H79.895V48.37ZM99.275 48.37H101.275V46.37H99.275V48.37ZM99.275 87.7V89.7H101.275V87.7H99.275ZM59.375 87.7H57.375V89.7H59.375V87.7ZM65.075 24.145L63.3245 23.1776L63.3147 23.1955L63.3052 23.2135L65.075 24.145ZM80.465 7.615L81.5016 9.32539H81.5016L80.465 7.615ZM41.42 0.489983H43.42V-1.79041L41.1591 -1.49292L41.42 0.489983ZM41.42 16.45L41.6787 18.4332L43.42 18.2061V16.45H41.42ZM30.02 21.865L28.6493 20.4086L28.6272 20.4294L28.6058 20.4508L30.02 21.865ZM22.895 33.55L21.0132 32.8725L21.0052 32.8949L20.9976 32.9175L22.895 33.55ZM20.615 48.37H18.615V50.37H20.615V48.37ZM39.995 48.37H41.995V46.37H39.995V48.37ZM39.995 87.7V89.7H41.995V87.7H39.995ZM0.0950012 87.7H-1.905V89.7H0.0950012V87.7ZM5.795 24.145L4.04452 23.1776L4.03466 23.1955L4.02516 23.2135L5.795 24.145ZM21.185 7.615L22.2216 9.32539H22.2216L21.185 7.615ZM98.985 0.489983V16.45H102.985V0.489983H98.985ZM100.737 14.4654C95.7724 15.086 91.4797 17.067 87.9293 20.4086L90.6707 23.3214C93.5803 20.583 97.0776 18.954 101.233 18.4345L100.737 14.4654ZM87.8858 20.4508C84.6044 23.7322 82.0857 27.8934 80.2932 32.8725L84.0568 34.2274C85.6843 29.7065 87.9156 26.0778 90.7142 23.2792L87.8858 20.4508ZM80.2776 32.9175C78.6828 37.702 77.895 42.8578 77.895 48.37H81.895C81.895 43.2422 82.6272 38.518 84.0724 34.1824L80.2776 32.9175ZM79.895 50.37H99.275V46.37H79.895V50.37ZM97.275 48.37V87.7H101.275V48.37H97.275ZM99.275 85.7H59.375V89.7H99.275V85.7ZM61.375 87.7V52.075H57.375V87.7H61.375ZM61.375 52.075C61.375 40.8779 63.244 31.9181 66.8448 25.0765L63.3052 23.2135C59.306 30.8119 57.375 40.4721 57.375 52.075H61.375ZM66.8255 25.1124C70.6681 18.1591 75.5663 12.9225 81.5016 9.32539L79.4284 5.9046C72.8237 9.90746 67.4619 15.6909 63.3245 23.1776L66.8255 25.1124ZM81.5016 9.32539C87.5282 5.67291 94.1009 3.38893 101.239 2.47375L100.731 -1.49377C93.0491 -0.508957 85.9418 1.95706 79.4284 5.9046L81.5016 9.32539ZM39.42 0.489983V16.45H43.42V0.489983H39.42ZM41.1613 14.4668C36.3716 15.0915 32.1832 17.0825 28.6493 20.4086L31.3907 23.3214C34.3168 20.5675 37.7284 18.9484 41.6787 18.4332L41.1613 14.4668ZM28.6058 20.4508C25.3244 23.7322 22.8057 27.8934 21.0132 32.8725L24.7768 34.2274C26.4043 29.7065 28.6356 26.0778 31.4342 23.2792L28.6058 20.4508ZM20.9976 32.9175C19.4028 37.702 18.615 42.8578 18.615 48.37H22.615C22.615 43.2422 23.3472 38.518 24.7924 34.1824L20.9976 32.9175ZM20.615 50.37H39.995V46.37H20.615V50.37ZM37.995 48.37V87.7H41.995V48.37H37.995ZM39.995 85.7H0.0950012V89.7H39.995V85.7ZM2.095 87.7V52.075H-1.905V87.7H2.095ZM2.095 52.075C2.095 40.8779 3.96401 31.9181 7.56484 25.0765L4.02516 23.2135C0.0259914 30.8119 -1.905 40.4721 -1.905 52.075H2.095ZM7.54548 25.1124C11.3881 18.1591 16.2863 12.9225 22.2216 9.32539L20.1484 5.9046C13.5437 9.90746 8.18193 15.6909 4.04452 23.1776L7.54548 25.1124ZM22.2216 9.32539C28.2564 5.66795 34.7375 3.38651 41.6809 2.47289L41.1591 -1.49292C33.6625 -0.506531 26.6536 1.96202 20.1484 5.9046L22.2216 9.32539Z" fill="#E070B0"/>
</svg>
